#define 0064_256_width 256
#define 0064_256_height 217
static unsigned short 0064_256_bits[] = {
   0x0000, 0x0000, 0x0000, 0x0000, 0x0000, 0x0000, 0x0000, 0x0000, 0x0000,
   0x0000, 0x0000, 0x0000, 0x0000, 0x0000, 0x0000, 0x0000, 0x0000, 0x0000,
   0x0000, 0x0000, 0x0000, 0x0000, 0x0000, 0x0000, 0x0000, 0x0000, 0x0000,
   0x0000, 0x0000, 0x0000, 0x0000, 0x0000, 0x0000, 0x0000, 0x0000, 0x0000,
   0x0000, 0x0000, 0x0000, 0x0000, 0x0000, 0x0000, 0x0000, 0x00ff, 0x0000,
   0x0000, 0x0000, 0x0000, 0x0000, 0x0000, 0x0000, 0x0000, 0x0000, 0x0000,
   0x0000, 0x0000, 0x0000, 0x0000, 0xf800, 0x1fff, 0x0000, 0x0000, 0x0000,
   0x0000, 0x0000, 0x0000, 0x0000, 0x0000, 0x0000, 0x0000, 0x0000, 0x0000,
   0x0000, 0x0000, 0xfe00, 0xff01, 0x0000, 0x0000, 0x0000, 0x0000, 0x0000,
   0x0000, 0x0000, 0x0000, 0x0000, 0x0000, 0x0000, 0x0000, 0x0000, 0x0000,
   0x07c0, 0xe000, 0x0007, 0x0000, 0x0000, 0x0000, 0x0000, 0x0000, 0x0000,
   0x0000, 0x0000, 0x0000, 0x0000, 0x0000, 0x0000, 0x0000, 0x01e0, 0xc000,
   0x001f, 0x0000, 0x0000, 0x0000, 0x0000, 0x0000, 0x0000, 0x0000, 0x0000,
   0x0000, 0x0000, 0x0000, 0x0000, 0x0000, 0x0078, 0x0000, 0x003c, 0x0000,
   0x0000, 0x0000, 0x0000, 0x0000, 0x0000, 0x0000, 0x0000, 0x0000, 0x0000,
   0x0000, 0x0000, 0x0000, 0x001c, 0x0000, 0x01fc, 0x0000, 0x0000, 0x0000,
   0x0000, 0x0000, 0x0000, 0x0000, 0x0000, 0x0000, 0x0000, 0x0000, 0x0000,
   0x0000, 0x000e, 0x0000, 0x07e0, 0x0000, 0x0000, 0x0000, 0x0000, 0x0000,
   0x0000, 0x0000, 0x0000, 0x0000, 0x0000, 0x0000, 0x0000, 0x0000, 0x0007,
   0x0000, 0x3f00, 0x0000, 0x0000, 0x0000, 0x0000, 0x0000, 0x0000, 0x0000,
   0x0000, 0x0000, 0x0000, 0x0000, 0x0000, 0x8000, 0x0003, 0x0000, 0x7e00,
   0x0000, 0x0000, 0x0000, 0x0000, 0x0000, 0x0000, 0x0000, 0x0000, 0x0000,
   0x0000, 0x0000, 0x0000, 0xc000, 0x0003, 0x0000, 0xf000, 0x0000, 0x0000,
   0x0000, 0x0000, 0x0000, 0x0000, 0x0000, 0x0000, 0x0000, 0x0000, 0x0000,
   0x0000, 0xc000, 0x0001, 0x0000, 0xc000, 0x0007, 0x0000, 0x0000, 0x0000,
   0x0000, 0x0000, 0x0000, 0x0000, 0x0000, 0x0000, 0x0000, 0x0000, 0xc000,
   0x0001, 0x0000, 0xc000, 0x000f, 0x0000, 0x0000, 0x0000, 0x0000, 0x0000,
   0x0000, 0x0000, 0x0000, 0x0000, 0x0000, 0x0000, 0xf800, 0x0000, 0x0000,
   0x0000, 0x001e, 0x0000, 0x0000, 0x0000, 0x0000, 0x0000, 0x0000, 0x0000,
   0x0000, 0x0000, 0x0000, 0x0000, 0xfe00, 0x0000, 0x0000, 0x0000, 0x007c,
   0x0000, 0x0000, 0x0000, 0x0000, 0x0000, 0x0000, 0x0000, 0x0000, 0x0000,
   0x0000, 0x0000, 0x7100, 0x0000, 0x0000, 0x0000, 0x00f8, 0x0000, 0x0000,
   0x0000, 0x0000, 0x0000, 0x0000, 0x0000, 0x0000, 0x0000, 0x0000, 0x0000,
   0x3000, 0x0000, 0x0000, 0x0000, 0x01e0, 0x0000, 0x0000, 0x0000, 0x0000,
   0x0000, 0x0000, 0x0000, 0x0000, 0x0000, 0x0000, 0x0000, 0x3800, 0x0000,
   0x0000, 0x0000, 0x01c0, 0x0000, 0x0000, 0x0000, 0x0000, 0x0000, 0x0000,
   0x0000, 0x0000, 0x0000, 0x0000, 0x0000, 0x1800, 0x0000, 0x0000, 0x0000,
   0x0380, 0x0000, 0x0000, 0x0000, 0x0000, 0x0000, 0x0000, 0x0000, 0x0000,
   0x0000, 0x0000, 0x0000, 0x1c00, 0x0000, 0x0000, 0x0000, 0x0780, 0x0000,
   0x0000, 0x0000, 0x0000, 0x0000, 0x0000, 0x0000, 0x0000, 0x0000, 0x0000,
   0x0000, 0x0e00, 0x0000, 0x0000, 0x0000, 0x0e00, 0x0000, 0x0000, 0x0000,
   0x0000, 0x0000, 0x0000, 0x0000, 0x0000, 0x0000, 0x0000, 0x0000, 0x0600,
   0x0000, 0x0000, 0x0000, 0x0e00, 0x0000, 0x0000, 0x0000, 0x0000, 0x0000,
   0x0000, 0x0000, 0x0000, 0x0000, 0x0000, 0x0000, 0x0700, 0x0000, 0x0000,
   0x0000, 0x3c00, 0x0000, 0x0000, 0x0000, 0x0000, 0x0000, 0x0000, 0x0000,
   0x0000, 0x0000, 0x0000, 0x0000, 0x0380, 0x0000, 0x0000, 0x0000, 0x7c00,
   0x0000, 0x0000, 0x0000, 0x0000, 0x0000, 0x0000, 0x0000, 0x0000, 0x0000,
   0x0000, 0x0000, 0x01c0, 0x0000, 0x0000, 0x0000, 0xf800, 0x0000, 0x0000,
   0x0000, 0x0000, 0x0000, 0x0000, 0x0000, 0x0000, 0x0000, 0x0000, 0x0000,
   0x00e0, 0x0000, 0x0000, 0x0000, 0xe000, 0x0000, 0x0000, 0x0000, 0x0000,
   0x0000, 0x0000, 0x0000, 0x0000, 0x0000, 0x0000, 0x0000, 0x0070, 0x0000,
   0x0000, 0x0000, 0xe000, 0x0000, 0x0000, 0x0000, 0x0000, 0x0000, 0x0000,
   0x0000, 0x0000, 0x0000, 0x0000, 0x0000, 0x003c, 0x0000, 0x0000, 0x0000,
   0xe000, 0x0000, 0x0000, 0x0000, 0x0000, 0x0000, 0x0000, 0x0000, 0x0000,
   0x0000, 0x0000, 0x8000, 0x001f, 0x0000, 0x0000, 0x0000, 0xc104, 0x0001,
   0x0000, 0x0000, 0x0000, 0x0000, 0x0000, 0x0000, 0x0000, 0x0000, 0x0000,
   0xc000, 0x0007, 0x0000, 0x0000, 0x0000, 0xc304, 0x0003, 0x0000, 0x0000,
   0x0000, 0x0000, 0x0000, 0x0000, 0x0000, 0x0000, 0x0000, 0xf800, 0x0000,
   0x0000, 0x0000, 0x0000, 0xc322, 0x0007, 0x0000, 0x0000, 0x0000, 0x0000,
   0x0000, 0x0000, 0x0000, 0x0000, 0x0000, 0x7f00, 0x0000, 0x0000, 0x0000,
   0x0000, 0x8323, 0x0007, 0x0000, 0x0000, 0x0000, 0x0000, 0x0000, 0x0000,
   0x0000, 0x0000, 0x0000, 0x0f80, 0x0000, 0x0000, 0x0000, 0x8000, 0x0331,
   0x000e, 0x0000, 0x0000, 0x0000, 0x0000, 0x0000, 0x0000, 0x0000, 0x0000,
   0x0000, 0x03fc, 0x0000, 0x0000, 0x0000, 0x8000, 0x0311, 0x000e, 0x0000,
   0x0000, 0x0000, 0x0000, 0x0000, 0x0000, 0x0000, 0x0000, 0x0000, 0x007e,
   0x0000, 0x0000, 0x0000, 0xc000, 0x0719, 0x000e, 0x0000, 0x0000, 0x0000,
   0x0000, 0x0000, 0x0000, 0x0000, 0x0000, 0xc000, 0x001f, 0x0000, 0x0000,
   0x0000, 0xc000, 0x0709, 0x001e, 0x0000, 0x0000, 0x0000, 0x0000, 0x0000,
   0x0000, 0x0000, 0x0000, 0xe000, 0x0003, 0x0000, 0x0000, 0x0000, 0xe000,
   0x1e3c, 0x003c, 0x0000, 0x0000, 0x0000, 0x0000, 0x0000, 0x0000, 0x0000,
   0x0000, 0xf800, 0x0000, 0x0000, 0x0000, 0x0000, 0xe000, 0x3e3c, 0x003c,
   0x0000, 0x0000, 0x0000, 0x0000, 0x0000, 0x0000, 0x0000, 0x0000, 0x3800,
   0x0000, 0x0000, 0x0000, 0x0000, 0x6100, 0x3f3e, 0x0038, 0x0000, 0x0000,
   0x0000, 0x0000, 0x0000, 0x0000, 0x0000, 0x0000, 0x1e00, 0x0000, 0x0000,
   0x0000, 0x0000, 0x6180, 0x3fbf, 0x0038, 0x0000, 0x0000, 0x0000, 0x0000,
   0x0000, 0x0000, 0x0000, 0x0000, 0x0f00, 0x0000, 0x0000, 0x0000, 0x0000,
   0x3080, 0x7fff, 0x0030, 0x0000, 0x0000, 0x0000, 0x0000, 0x0000, 0x0000,
   0x0000, 0x0000, 0x0780, 0x0000, 0x4000, 0x0000, 0x0000, 0xb0c0, 0xfaff,
   0x0078, 0x0000, 0x0000, 0x0000, 0x0000, 0x0000, 0x0000, 0x0000, 0x0000,
   0x03c0, 0x0000, 0x4000, 0x0000, 0x0000, 0x3060, 0xfaff, 0x0078, 0x0000,
   0x0000, 0x0000, 0x0000, 0x0000, 0x0000, 0x0000, 0x0000, 0x01c0, 0x0000,
   0xc000, 0x0000, 0x0000, 0x3860, 0xf8ff, 0x0070, 0x0000, 0x0000, 0x0000,
   0x0000, 0x0000, 0x0000, 0x0000, 0x0000, 0x00e0, 0x0000, 0xc000, 0x0001,
   0x0000, 0x9860, 0xf9ff, 0x0070, 0x0000, 0x0000, 0x0000, 0x0000, 0x0000,
   0x0000, 0x0000, 0x0000, 0x00e0, 0x0000, 0xc000, 0x0003, 0x0000, 0x9860,
   0xf9ff, 0x0070, 0x0000, 0x0000, 0x0000, 0x0000, 0x0000, 0x0000, 0x0000,
   0x0000, 0x0070, 0x0000, 0x8000, 0x0003, 0x0000, 0xcc20, 0xfdff, 0x0070,
   0x0000, 0x0000, 0x0000, 0x0000, 0x0000, 0x0000, 0x0000, 0x0000, 0x0030,
   0x0000, 0x8000, 0x0007, 0x0000, 0xce30, 0xfcfd, 0x0070, 0x0000, 0x0000,
   0x0000, 0x0000, 0x0000, 0x0000, 0x0000, 0x0000, 0x0038, 0x0000, 0x8000,
   0x0007, 0x0000, 0xce30, 0xeefd, 0x0071, 0x0000, 0x0000, 0x0000, 0x0000,
   0x0000, 0x0000, 0x0000, 0x0000, 0x0038, 0x0000, 0x0000, 0x0007, 0x0000,
   0xee30, 0xfefd, 0x0071, 0x0000, 0x0000, 0x0000, 0x0000, 0x0000, 0x0000,
   0x0000, 0x0000, 0x001c, 0x0000, 0x0000, 0x0003, 0x0000, 0xfe30, 0x7eff,
   0x0071, 0x0000, 0x0000, 0x0000, 0x0000, 0x0000, 0x0000, 0x0000, 0x0000,
   0x001c, 0x0000, 0x0000, 0x0000, 0x0000, 0xff30, 0xeec7, 0x0071, 0x0000,
   0x0000, 0x0000, 0x0000, 0x0000, 0x0000, 0x0000, 0x0000, 0x000e, 0x0000,
   0x0000, 0x0000, 0x0000, 0xbb10, 0xefc7, 0x0071, 0x0000, 0x0000, 0x0000,
   0x0000, 0x0000, 0x0000, 0x0000, 0x0000, 0x000e, 0x0000, 0x0000, 0x0000,
   0x0000, 0xb718, 0xefc7, 0x0071, 0x0000, 0x0000, 0x0000, 0x0000, 0x0000,
   0x0000, 0x0000, 0x0000, 0x000e, 0x0000, 0x0000, 0x0000, 0x0000, 0x3f98,
   0xefff, 0x0071, 0x0000, 0x0000, 0x0000, 0x0000, 0x0000, 0x0000, 0x0000,
   0x0000, 0x0006, 0x0000, 0x0000, 0x0000, 0x0000, 0x9f98, 0xe5fb, 0x0071,
   0x0000, 0x0000, 0x0000, 0x0000, 0x0000, 0x0000, 0x0000, 0x0000, 0x0007,
   0x0000, 0x0000, 0x0000, 0x0000, 0x9f98, 0xe4fb, 0x0071, 0x0000, 0x0000,
   0x0000, 0x0000, 0x0000, 0x0000, 0x0000, 0x0000, 0x0007, 0x0000, 0x0000,
   0x0000, 0x0000, 0xbf18, 0xe4fb, 0x0071, 0x0000, 0x0000, 0x0000, 0x0000,
   0x0000, 0x0000, 0x0000, 0x0000, 0x0007, 0x0000, 0x0000, 0x0000, 0x0000,
   0xff18, 0xe5ff, 0x0031, 0x0000, 0x0000, 0x0000, 0x0000, 0x0000, 0x0000,
   0x0000, 0x0000, 0x0003, 0x0000, 0x0000, 0x0000, 0x0000, 0xfb18, 0xe7ff,
   0x0039, 0x0000, 0x0000, 0x0000, 0x0000, 0x0000, 0x0000, 0x0000, 0x8000,
   0x0003, 0x0000, 0x0000, 0x0000, 0x0000, 0xfb18, 0xf3ff, 0x0039, 0x0000,
   0x0000, 0x0000, 0x0000, 0x0000, 0x0000, 0x0000, 0x8000, 0x0003, 0x0000,
   0x0000, 0x0000, 0x0000, 0xfb18, 0x83ff, 0x0039, 0x0000, 0x0000, 0x0000,
   0x0000, 0x0000, 0x0000, 0x0000, 0x8000, 0x0003, 0x0000, 0x0000, 0x0000,
   0x0000, 0xfb18, 0x83ef, 0x0038, 0x0000, 0x0000, 0x0000, 0x0000, 0x0000,
   0x0000, 0x0000, 0x8000, 0x0003, 0x0000, 0x0000, 0x0000, 0x0000, 0xf398,
   0xbfff, 0x001c, 0x0000, 0x0000, 0x0000, 0x0000, 0x0000, 0x0000, 0x0000,
   0x8000, 0x0003, 0x0000, 0x0000, 0x0000, 0x0000, 0xd318, 0x7ff7, 0x000c,
   0x0000, 0x0000, 0x0000, 0x0000, 0x0000, 0x0000, 0x0000, 0x8000, 0x0003,
   0x0000, 0x0000, 0x0000, 0x0000, 0xff18, 0x7ff7, 0x000c, 0x0000, 0x0000,
   0x0000, 0x0000, 0x0000, 0x0000, 0x0000, 0x8000, 0x0003, 0x0000, 0x0000,
   0x0000, 0x0000, 0xff18, 0x7fef, 0x000e, 0x0000, 0x0000, 0x0000, 0x0000,
   0x0000, 0x0000, 0x0000, 0x8000, 0x0003, 0x0000, 0x0000, 0x0000, 0x0000,
   0xf718, 0x37ef, 0x0006, 0x0000, 0x0000, 0x0000, 0x0000, 0x0000, 0x0000,
   0x0000, 0x8000, 0x0003, 0x0000, 0x0000, 0x0000, 0x0000, 0xfe38, 0x3fff,
   0x0007, 0x0000, 0x0000, 0x0000, 0x0000, 0x0000, 0x0000, 0x0000, 0x8000,
   0x0003, 0x0000, 0x0000, 0x0000, 0x0000, 0xfe38, 0x1fb7, 0x0007, 0x0000,
   0x0000, 0x0000, 0x0000, 0x0000, 0x0000, 0x0000, 0x8000, 0x0003, 0x0000,
   0x0000, 0x0000, 0x0000, 0xfe30, 0x0fd7, 0x0007, 0x0000, 0x0000, 0x0000,
   0x0000, 0x0000, 0x0000, 0x0000, 0x8000, 0x0007, 0x0000, 0x0000, 0x0000,
   0x0000, 0xfc30, 0x8fff, 0x0003, 0x0000, 0x0000, 0x0000, 0x0000, 0x0000,
   0x0000, 0x0000, 0x8000, 0x0007, 0x0000, 0x0000, 0x0000, 0x0000, 0xf860,
   0x87ff, 0x0001, 0x0000, 0x0000, 0x0000, 0x0000, 0x0000, 0x0000, 0x0000,
   0xf800, 0x000f, 0x0000, 0x0000, 0x0000, 0x0010, 0xf060, 0xc3ff, 0x0000,
   0x0000, 0x0000, 0x0000, 0x0000, 0x0000, 0x0000, 0x0000, 0x8c00, 0x000f,
   0x0000, 0x0000, 0x0000, 0x0010, 0xc0e0, 0xc1ff, 0x0000, 0x0000, 0x0000,
   0x0000, 0x0000, 0x0000, 0x0000, 0x0000, 0x0600, 0x001e, 0x0000, 0x0000,
   0x0000, 0x0038, 0xc3e0, 0x603f, 0x0000, 0x0000, 0x0000, 0x0000, 0x0000,
   0x0000, 0x0000, 0x0000, 0x0200, 0x003e, 0x0000, 0x0000, 0x0000, 0x0018,
   0x07e0, 0x3e00, 0x0000, 0x0000, 0x0000, 0x0000, 0x0000, 0x0000, 0x0000,
   0x0000, 0x0200, 0x003c, 0x0000, 0x0000, 0x0000, 0x0008, 0x1ff0, 0x1e00,
   0x0000, 0x0000, 0x0000, 0x0000, 0x0000, 0x0000, 0x0000, 0x0000, 0x0300,
   0x0038, 0x0000, 0x0000, 0x0000, 0x000c, 0x7f38, 0x0e00, 0x0000, 0x0000,
   0x0000, 0x0000, 0x0000, 0x0000, 0x0000, 0x0000, 0x8300, 0x007f, 0x0000,
   0x0000, 0x0000, 0x0006, 0xfe1f, 0x0383, 0x0000, 0x0000, 0x0000, 0x0000,
   0x0000, 0x0000, 0x0000, 0x0000, 0x8300, 0x00ff, 0x0000, 0x0000, 0x0000,
   0x8002, 0xfc07, 0x03ff, 0x0000, 0x0000, 0x0000, 0x0000, 0x0000, 0x0000,
   0x0000, 0x0000, 0xc200, 0x01ff, 0x0000, 0x0000, 0x0000, 0xc000, 0xe003,
   0x01ff, 0x0000, 0x0000, 0x0000, 0x0000, 0x0000, 0x0000, 0x0000, 0x0000,
   0xc600, 0x07ff, 0x0000, 0x0000, 0x0000, 0xe001, 0x0001, 0x007e, 0x0000,
   0x0000, 0x0000, 0x0000, 0x0000, 0x0000, 0x0000, 0x0000, 0xc600, 0x0fff,
   0x0000, 0x0000, 0xc000, 0xe001, 0x0000, 0x0000, 0x0000, 0x0000, 0x0000,
   0x0000, 0x0000, 0x0000, 0x0000, 0x0000, 0x8e00, 0x7f1f, 0x0000, 0x0000,
   0x7000, 0x3000, 0x0000, 0x0000, 0x0000, 0x0000, 0x0000, 0x0000, 0x0000,
   0x0000, 0x0000, 0x0000, 0xfc00, 0xf80f, 0x000f, 0x0000, 0x1c00, 0x3800,
   0x0000, 0x0000, 0x0000, 0x0000, 0x0000, 0x0000, 0x0000, 0x0000, 0x0000,
   0x0000, 0xf800, 0xc003, 0x03ff, 0x0000, 0x0780, 0x1800, 0x0000, 0x0000,
   0x0000, 0x0000, 0x0000, 0x0000, 0x0000, 0x0000, 0x0000, 0x0000, 0xf000,
   0x0000, 0xffff, 0xcfff, 0x03ff, 0x1c00, 0x0000, 0x0000, 0x0000, 0x0000,
   0x0000, 0x0000, 0x0000, 0x0000, 0x0000, 0x0000, 0x0000, 0x0000, 0xfff0,
   0xffff, 0x01ff, 0x0c00, 0x0000, 0x0000, 0x0000, 0x0000, 0x0000, 0x0000,
   0x0000, 0x0000, 0x0000, 0x0000, 0x0000, 0x0000, 0xfc00, 0xf9cf, 0x07ff,
   0x0c00, 0x0000, 0x0000, 0x0000, 0x0000, 0x0000, 0x0000, 0x0000, 0x0000,
   0x0000, 0x0000, 0x0000, 0x0000, 0x0000, 0x0000, 0x07c0, 0x0e00, 0x0000,
   0x0000, 0x0000, 0x0000, 0x0000, 0x0000, 0x0000, 0x0000, 0x0000, 0x0000,
   0x0000, 0x0000, 0x0000, 0x0000, 0x0e00, 0x0e00, 0x0000, 0x0000, 0x0000,
   0x0000, 0x0000, 0x0000, 0x0000, 0x0000, 0x0000, 0x0000, 0x0000, 0x0000,
   0x0000, 0x0000, 0x0c00, 0x0e00, 0x7800, 0x0000, 0x0000, 0x0000, 0x0000,
   0x0000, 0x0000, 0x0000, 0x0000, 0x0000, 0x0000, 0x0000, 0xe000, 0x0000,
   0x0c00, 0x0600, 0xec00, 0x0000, 0x0000, 0x0000, 0x0000, 0x0000, 0x0000,
   0x0000, 0x0000, 0x0000, 0x0000, 0x0000, 0xf800, 0x0003, 0x0c00, 0x0700,
   0xc600, 0x0003, 0x0000, 0x0000, 0x0000, 0x0000, 0x1000, 0x0000, 0x0000,
   0x0000, 0x0000, 0x0000, 0x1800, 0x0006, 0x1c00, 0x0700, 0xc200, 0x0387,
   0x0000, 0x0000, 0x0000, 0x0000, 0x1800, 0x0000, 0x0000, 0x0000, 0x0000,
   0x0000, 0x1800, 0x000c, 0xff00, 0x07ff, 0x0300, 0x1e67, 0x0000, 0x0000,
   0x0000, 0x0000, 0x3c00, 0x0000, 0x0000, 0x0000, 0x0000, 0x0000, 0x1800,
   0x0008, 0xff00, 0x0fff, 0x0300, 0x1e36, 0x0000, 0x0000, 0x0000, 0x0000,
   0x0c00, 0x0000, 0x0000, 0x0000, 0x0000, 0x0000, 0x0800, 0x0010, 0xfe00,
   0x1fff, 0x0300, 0x181e, 0x0000, 0x0000, 0x0000, 0x0000, 0x0400, 0x0000,
   0x0000, 0x0000, 0x0000, 0x0000, 0x0800, 0x0010, 0x0600, 0x0f00, 0x0300,
   0x380e, 0x0000, 0x0000, 0x0000, 0x0000, 0x0600, 0x0000, 0x0000, 0x0000,
   0x0000, 0x0000, 0x1de0, 0x0030, 0x0200, 0x0f00, 0x0300, 0x300e, 0x0000,
   0x0000, 0x0000, 0x8000, 0x0601, 0x0000, 0x0000, 0x0000, 0x0000, 0x0000,
   0x1ffc, 0x0070, 0x0300, 0x0600, 0x0600, 0x3000, 0x0000, 0x0000, 0x0000,
   0x6000, 0x0200, 0x0100, 0x0000, 0x0000, 0x0000, 0x0000, 0x0e1c, 0xfff0,
   0x00ff, 0x0e00, 0x0ffc, 0x1000, 0x0000, 0x0000, 0x0000, 0x3000, 0x0300,
   0x0180, 0x0000, 0x0000, 0x0000, 0x0000, 0x040e, 0xfde0, 0x007f, 0xfe00,
   0x0fff, 0x1800, 0x0000, 0x0000, 0x0000, 0x0800, 0x0300, 0x0080, 0x0000,
   0x0000, 0x0000, 0x0000, 0x000e, 0x0000, 0x0000, 0xfe00, 0x037f, 0x1e00,
   0x0000, 0x0000, 0x0000, 0x0800, 0x0100, 0x0040, 0x0000, 0x0000, 0x0000,
   0x0000, 0x0006, 0x0000, 0x0000, 0x0000, 0x0000, 0x0e00, 0x0000, 0x0000,
   0x0000, 0x0c00, 0x0180, 0x3830, 0x0000, 0x0000, 0x0000, 0x0000, 0x0006,
   0x0000, 0x0000, 0x0000, 0x0000, 0x3f00, 0x0000, 0x0000, 0x0000, 0x0c00,
   0x0180, 0xcf1f, 0x0001, 0x0000, 0x0000, 0x0000, 0x0006, 0x0000, 0x0000,
   0x0000, 0x0000, 0xf000, 0x0000, 0x0000, 0x0000, 0x1800, 0x8180, 0x0387,
   0x0001, 0x0000, 0x0000, 0x0000, 0x01fe, 0x0000, 0x0000, 0x0000, 0x0000,
   0xe000, 0x0000, 0x0000, 0x0000, 0x1800, 0x8180, 0x01c1, 0x0000, 0x0000,
   0x0000, 0x0000, 0x03fe, 0x0000, 0x0000, 0x0000, 0x0000, 0xc000, 0x0000,
   0x0000, 0x0000, 0x3000, 0x8380, 0x00c0, 0x0000, 0x0000, 0x0000, 0x0000,
   0x03c0, 0x0000, 0x0000, 0x0000, 0x0000, 0x8000, 0x0001, 0x0000, 0x0000,
   0x3000, 0x0600, 0x00c0, 0x0000, 0x0000, 0x0000, 0x0000, 0x00e0, 0x0000,
   0x0000, 0x0000, 0x0000, 0x8000, 0x0000, 0x0000, 0x0000, 0x6000, 0x0000,
   0x00e0, 0x0000, 0x0000, 0x0000, 0x0000, 0x0060, 0x0000, 0x0000, 0x0000,
   0x0000, 0xc200, 0x0000, 0x0000, 0x0000, 0x6000, 0x0000, 0x00e0, 0x0000,
   0x0000, 0x0000, 0x0000, 0x0070, 0x0000, 0x0000, 0x0000, 0x0000, 0x4700,
   0x0000, 0x0000, 0x0000, 0xe000, 0x0000, 0x00e0, 0x0000, 0x0000, 0x0000,
   0x0000, 0x0070, 0x0000, 0x0000, 0x0000, 0x0000, 0x7f00, 0x0000, 0x0000,
   0x0000, 0xc000, 0x8000, 0x01e3, 0x0000, 0x0000, 0x0000, 0x0000, 0x3070,
   0x0000, 0x0000, 0x0000, 0x0000, 0x3e00, 0x0000, 0x0000, 0x0000, 0xc000,
   0xc000, 0x00e6, 0x0000, 0x0000, 0x0000, 0x0000, 0x38e0, 0xff80, 0x0001,
   0x0000, 0x0000, 0x0e00, 0x0000, 0x0000, 0x0000, 0x8000, 0x0001, 0x01c0,
   0x0000, 0x0000, 0x0000, 0x0000, 0x3ee0, 0xffe0, 0x0007, 0x0000, 0x0000,
   0x0c00, 0x0000, 0x0000, 0x0000, 0x8000, 0x0001, 0x03c0, 0x0000, 0x0000,
   0x0000, 0x0000, 0x1fe0, 0xffe0, 0x0007, 0x0000, 0x0000, 0x0c00, 0x0000,
   0x0000, 0x0000, 0x0000, 0x0003, 0x0780, 0x0000, 0x0000, 0x0000, 0x0000,
   0x1be0, 0x0040, 0x0006, 0xf000, 0xffff, 0x0403, 0x0000, 0x0000, 0x0000,
   0x0000, 0x0007, 0x0700, 0x0000, 0x0000, 0x0000, 0x0000, 0x1800, 0x0060,
   0x0002, 0xf000, 0xffff, 0x0603, 0x0000, 0x0000, 0x0000, 0x0000, 0x0007,
   0x1e00, 0x0000, 0x0000, 0x0000, 0x0000, 0x3800, 0x0070, 0x0003, 0x7000,
   0x5ee0, 0x0306, 0x0000, 0x0000, 0x0000, 0xc000, 0x0006, 0xf800, 0x0000,
   0x0000, 0x0000, 0x0000, 0x7800, 0x003e, 0x0003, 0x6000, 0x0000, 0x01c6,
   0x0000, 0x0000, 0x0000, 0x7000, 0x0000, 0xf800, 0x0007, 0x0000, 0x0000,
   0x0000, 0xf000, 0x001f, 0x0003, 0x6000, 0x0000, 0x00fc, 0x0000, 0x0000,
   0x0000, 0x1800, 0x0000, 0xc00c, 0x003f, 0x0000, 0x0000, 0x0000, 0xe000,
   0x800f, 0x0001, 0x6000, 0x0000, 0x0038, 0x0000, 0x0000, 0x0000, 0x0600,
   0x0000, 0x004e, 0x007c, 0x0000, 0x0000, 0xf000, 0xe001, 0x8000, 0x0001,
   0x6000, 0x0000, 0x0000, 0x0000, 0x0000, 0x0000, 0x0180, 0x0000, 0x00c6,
   0x00f0, 0x0000, 0x0000, 0xff80, 0x0007, 0xc000, 0x0001, 0x6000, 0x0000,
   0x0000, 0x0000, 0x0000, 0x0000, 0x0060, 0x0000, 0x01c7, 0x01c0, 0x0000,
   0x0000, 0x07c0, 0x003f, 0xc000, 0x0000, 0xe000, 0x0000, 0x0000, 0x0000,
   0x0000, 0x0000, 0x0020, 0x0000, 0x00c3, 0x0780, 0x0000, 0x0000, 0x0178,
   0x00f0, 0xc000, 0x0000, 0xc000, 0x0001, 0x0000, 0x0000, 0x0000, 0x0000,
   0x0020, 0x0000, 0x0081, 0x0600, 0x0000, 0x0000, 0x811c, 0x01e0, 0x6000,
   0x01fc, 0x8000, 0x0001, 0x0000, 0x0000, 0x0000, 0x0000, 0x0020, 0x0000,
   0x0000, 0x0e00, 0x0000, 0x0000, 0x818f, 0x03e0, 0x6000, 0x03ff, 0x8000,
   0x0001, 0x0000, 0x0000, 0x0000, 0x0000, 0x0020, 0x0000, 0x0000, 0x0c00,
   0x0000, 0x0000, 0x8187, 0x0380, 0xe000, 0x1e07, 0x8000, 0x0001, 0x0000,
   0x0000, 0x0000, 0x0000, 0x0420, 0x0000, 0x0000, 0x0c00, 0x0000, 0x8000,
   0x8183, 0x0300, 0xf000, 0xf801, 0x8000, 0x0003, 0x0000, 0x0000, 0x0000,
   0x0000, 0x8200, 0x0001, 0x0000, 0x0c00, 0x0000, 0xc000, 0x8081, 0x0700,
   0x7000, 0xf810, 0x8001, 0x0003, 0x0000, 0x0000, 0x0000, 0x0000, 0x4180,
   0x0000, 0x0000, 0x0400, 0x0000, 0xc000, 0x0081, 0x0e00, 0x3800, 0x8810,
   0x8007, 0x0001, 0x0000, 0x0000, 0x0000, 0x0000, 0x2000, 0x0000, 0x0000,
   0x0600, 0x0000, 0xc000, 0x4081, 0x0c80, 0x3c00, 0x0c10, 0x800f, 0x0003,
   0x0000, 0x0000, 0x0000, 0x0000, 0x2000, 0x0000, 0x0000, 0x0600, 0x0000,
   0xe000, 0x4081, 0x1cc0, 0x3e00, 0x0408, 0x800e, 0x0007, 0x0000, 0x0000,
   0x0000, 0x0000, 0x1000, 0x0000, 0x0000, 0x0700, 0x0000, 0x6000, 0x40c0,
   0x1c80, 0x2e00, 0x0408, 0x001c, 0x0007, 0x0000, 0x0000, 0x0000, 0x0000,
   0x0800, 0x0020, 0x0000, 0x03e0, 0x0000, 0x3000, 0x40c0, 0x3cc0, 0x2700,
   0x0608, 0x003d, 0x000e, 0x0000, 0x0000, 0x0000, 0x0000, 0x0c00, 0x0030,
   0xf000, 0x01ff, 0x0000, 0x3000, 0x40c0, 0x30c0, 0x1780, 0x0604, 0x0079,
   0x000e, 0x0000, 0x0000, 0x0000, 0x0000, 0x0600, 0x0010, 0xfc00, 0x001f,
   0x0000, 0x9800, 0x40c0, 0x30c0, 0x13c0, 0x0204, 0x0079, 0x000e, 0x0000,
   0x0000, 0x0000, 0x0000, 0x0300, 0x1c18, 0x1f80, 0x0000, 0x0000, 0x9800,
   0x40c0, 0x70c0, 0x11c0, 0x8204, 0x0061, 0x000e, 0x0000, 0x0000, 0x0000,
   0x0000, 0x0000, 0x7f98, 0x0780, 0x0000, 0x0000, 0x9800, 0x4040, 0x70c0,
   0x11e0, 0x8302, 0x00e1, 0x001e, 0x0000, 0x0000, 0x0000, 0x0000, 0x0000,
   0xf018, 0x01c0, 0x0000, 0x0000, 0x8c00, 0x4040, 0x70c0, 0x18e0, 0x8302,
   0x00e1, 0x001e, 0x0000, 0x0000, 0x0000, 0x0000, 0x0000, 0xc00c, 0x0040,
   0x0000, 0x0000, 0x8c00, 0x6040, 0x60c0, 0x08e0, 0x8102, 0x01e1, 0x001c,
   0x0000, 0x0000, 0x0000, 0x0000, 0x0000, 0xc000, 0x0060, 0x0000, 0x0000,
   0x8e00, 0x6040, 0x60c0, 0x0860, 0x8102, 0x01e0, 0x001c, 0x0000, 0x0000,
   0x0000, 0x0000, 0x0000, 0x8000, 0x0061, 0x0000, 0x0000, 0x8600, 0x6040,
   0x60c0, 0x0870, 0x8183, 0x01c0, 0x0018, 0x0000, 0x0000, 0x0000, 0x0000,
   0x0000, 0x8000, 0x0061, 0x0000, 0x0000, 0x8600, 0x6040, 0x60c0, 0x0830,
   0xc181, 0x01c0, 0x0018, 0x0000, 0x0000, 0x0000, 0x0000, 0x0000, 0xc000,
   0x00e1, 0x0000, 0x0000, 0x8600, 0x6040, 0x6040, 0x0438, 0xc081, 0x01f8,
   0x001c, 0x0000, 0x0000, 0x0000, 0x0000, 0x0000, 0xc000, 0x01c0, 0x0000,
   0x0000, 0x8600, 0x6040, 0x4040, 0x043c, 0xc081, 0x01e8, 0x0038, 0x0000,
   0x0000, 0x0000, 0x0000, 0x0000, 0xc000, 0x0180, 0x0000, 0x0000, 0x8700,
   0x2040, 0xc040, 0x843b, 0x40c1, 0x01f0, 0x0038, 0x0000, 0x0000, 0x0000,
   0x0000, 0x0000, 0xc000, 0x03c0, 0x0000, 0x0000, 0x8700, 0x2040, 0x4040,
   0x8618, 0x6040, 0x01d0, 0x0030, 0x0000, 0x0000, 0x0000, 0x0000, 0x0000,
   0xc000, 0x1be0, 0x0000, 0x0000, 0x8700, 0x2040, 0x4040, 0x8218, 0x6040,
   0x0190, 0x0010, 0x0000, 0x0000, 0x0000, 0x0000, 0x0000, 0xe000, 0xbbe0,
   0x0001, 0x0000, 0x8700, 0x2040, 0x4040, 0x821c, 0x2040, 0x0190, 0x0018,
   0x0000, 0x0000, 0x0000, 0x0000, 0x0000, 0xe000, 0xbb91, 0x0001, 0x0000,
   0x8700, 0x2040, 0x4040, 0xc20c, 0x2040, 0x0198, 0x0038, 0x0000, 0x0000,
   0x0000, 0x0000, 0x0000, 0x6000, 0x9b93, 0x0003, 0x0000, 0x8700, 0x2040,
   0x6040, 0x420e, 0x2060, 0x01d8, 0x0038, 0x0000, 0x0000, 0x0000, 0x0000,
   0x0000, 0x7000, 0xdf93, 0x0002, 0x0000, 0x8300, 0x2040, 0x6060, 0x430e,
   0x3020, 0x01c8, 0x0018, 0x0000, 0x0000, 0x0000, 0x0000, 0x0000, 0x7000,
   0x5f8b, 0x0002, 0x0000, 0x8700, 0x2000, 0x6060, 0x410e, 0x3020, 0x01c8,
   0x0018, 0x0000, 0x0000, 0x0000, 0x0000, 0x0000, 0x5800, 0x478e, 0x0002,
   0x0000, 0xc700, 0x2000, 0x2060, 0x410e, 0x1020, 0x00c8, 0xff18, 0x6001,
   0x0000, 0x0000, 0x0000, 0x0000, 0x5800, 0x578e, 0x0002, 0x0000, 0xc700,
   0x3000, 0x2060, 0x410e, 0x1030, 0x00cc, 0xe198, 0xfe1f, 0x0000, 0x0000,
   0x0000, 0x0000, 0x4800, 0x678e, 0x0002, 0x0000, 0xc700, 0x3000, 0x2060,
   0x410e, 0x1830, 0x00cc, 0x0078, 0x47ff, 0x0000, 0x0000, 0x0000, 0x0000,
   0xcc00, 0x658c, 0x0003, 0x0000, 0x4f00, 0x3000, 0x2060, 0x018e, 0x1810,
   0x0064, 0x0038, 0x40fc, 0x0000, 0x0000, 0x0000, 0x0100, 0xcc00, 0x758c,
   0x0003, 0x0000, 0x4f00, 0x3000, 0x3060, 0x208e, 0x0810, 0x0066, 0x007c,
   0x2000, 0x0000, 0x0000, 0x0000, 0x0700, 0xcc00, 0x759c, 0x0003, 0x0000,
   0x4e00, 0x3000, 0x1060, 0x208e, 0x0810, 0x0066, 0x00fc, 0x2000, 0x0000,
   0x0000, 0x0000, 0xff80, 0x9fff, 0x559c, 0x0003, 0x0000, 0x5c00, 0x3000,
   0x1060, 0x208e, 0x0810, 0x0066, 0x00f8, 0x3000, 0x0000, 0x0000, 0x0000,
   0xe180, 0x9e1f, 0x3f9d, 0x0001, 0x0000, 0x7c00, 0x3040, 0x18c0, 0x208e,
   0x0c18, 0x0036, 0x007c, 0x1c00, 0x0000, 0x0000, 0x0000, 0x0180, 0xbc00,
   0xbfd9, 0x0001, 0x0000, 0xfc00, 0x3040, 0x0880, 0x209e, 0x0c08, 0x0032,
   0x007c, 0x0600, 0x0000, 0x0000, 0x0000, 0x01fe, 0x3800, 0x9edf, 0x0000,
   0x0000, 0xfc00, 0x3041, 0x1c00, 0x309e, 0x0408, 0x003e, 0x003e, 0x0300,
   0x0000, 0x0000, 0x0000, 0x03ff, 0xf000, 0x9cde, 0x03ff, 0x0000, 0xff20,
   0x30c7, 0xfc00, 0x32ff, 0x0408, 0x801e, 0x001f, 0x0180, 0x0000, 0x0000,
   0x0000, 0x0323, 0xf000, 0xe01c, 0xffff, 0xffff, 0xffff, 0x3383, 0xfe00,
   0x12ff, 0x0608, 0xe00c, 0x801f, 0xf1df, 0x0003, 0x0000, 0x0000, 0x0203,
   0x7f00, 0xf018, 0xff00, 0xffff, 0xffff, 0xe003, 0x0300, 0x11f8, 0x020c,
   0xfc06, 0xf03f, 0xcfff, 0x07ff, 0x0000, 0x0000, 0x02e1, 0x1f80, 0xff08,
   0x0003, 0x01c0, 0xc000, 0xc00f, 0x0180, 0x11f8, 0x0204, 0xbf82, 0xfffe,
   0x00f8, 0x07fe, 0x0000, 0x8000, 0x07e1, 0x0ff0, 0x3ff0, 0x0003, 0x3f00,
   0x0000, 0x00ff, 0x00fe, 0x13e0, 0x0304, 0x07ff, 0x07f0, 0x3ffc, 0x0000,
   0x0000, 0x8000, 0x07f1, 0x03f8, 0x1ffc, 0x0f07, 0x7fff, 0x1e00, 0xffff,
   0x003f, 0x9fc0, 0xc324, 0xff9f, 0xe1ff, 0xffff, 0x000f, 0x0000, 0x8000,
   0x0ff8, 0x01fe, 0x07fc, 0xffff, 0xffff, 0xff7f, 0xffff, 0xff8f, 0xffc0,
   0xf734, 0xfff1, 0xffff, 0xffff, 0x00ff, 0x0000, 0xc000, 0x0ffc, 0x30ff,
   0x07fc, 0xffff, 0xffff, 0xffff, 0xffff, 0xfffc, 0xff01, 0xffff, 0xffff,
   0xffff, 0xffff, 0x03ff, 0x0000, 0xc000, 0xcdfe, 0xff73, 0x03fc, 0xffff,
   0xffff, 0xffff, 0x01ff, 0xfffe, 0xffff, 0xffff, 0xffff, 0xffff, 0xffff,
   0x07ff, 0x0000, 0xc000, 0xfc7f, 0xffe0, 0x01fd, 0xfffe, 0xffff, 0xffff,
   0x03c0, 0xfffe, 0xffff, 0xffff, 0xffff, 0xffff, 0xffff, 0x0fff, 0x0000,
   0xc000, 0x3c3f, 0xfff8, 0xe0ff, 0xffff, 0xffff, 0x3fff, 0x01c0, 0xfffe,
   0x1fff, 0xe3ff, 0xffff, 0xffff, 0xffff, 0x0fff, 0x0000, 0xe000, 0x7f1f,
   0xfffe, 0xffff, 0xffff, 0xf7ff, 0x1fff, 0x01c0, 0xfffc, 0xffff, 0xe001,
   0xf1ff, 0xffff, 0xffff, 0x0fff, 0x0000, 0xe000, 0x7fff, 0xffff, 0xffff,
   0xffff, 0xffff, 0x0fff, 0x83e0, 0xffff, 0xf81f, 0xe001, 0xe07f, 0xffff,
   0xffff, 0x1fff, 0x0000, 0xa000, 0xffff, 0xefff, 0xffff, 0xffff, 0xffff,
   0x07ff, 0x07f8, 0xfbff, 0xf80b, 0xfc03, 0xffff, 0xffff, 0xffff, 0x1fff,
   0x0000, 0xb000, 0xffff, 0xcfff, 0xffff, 0xffff, 0xffff, 0x87ff, 0x87ff,
   0xf9ff, 0xff88, 0xff83, 0xffff, 0xffff, 0x9fff, 0x1fbf, 0x0000, 0x3000,
   0xffff, 0xcfff, 0xffff, 0xffff, 0xffff, 0xf3ff, 0xffff, 0x73ff, 0xffff,
   0xffe3, 0xffff, 0xffff, 0x9fff, 0x0fff, 0x0000, 0x3000, 0xffff, 0xdfff,
   0xffff, 0xffff, 0xffff, 0xffff, 0xffff, 0x21ff, 0xffff, 0xffe3, 0xffff,
   0xffff, 0xefff, 0x07ff, 0x0000, 0x3000, 0xf1fe, 0x9fff, 0xffff, 0xffff,
   0xffff, 0xffff, 0xffff, 0x80ff, 0xffff, 0xffe3, 0xfffd, 0xffff, 0xffff,
   0x03ff, 0x0000, 0x1000, 0xf0fe, 0x9fff, 0xffff, 0xfc3f, 0xffff, 0xfcdf,
   0x7fff, 0xe07f, 0xffff, 0xffe3, 0x3fff, 0xffff, 0x3fff, 0x01ff, 0x0000,
   0x1000, 0xfc7e, 0x1fff, 0xffff, 0xfc0f, 0xdfff, 0xf80f, 0x3fff, 0xf87e,
   0xffff, 0xfff3, 0x1fff, 0xfff0, 0x1fff, 0x00fe, 0x0000, 0x1800, 0xffbf,
   0x1f9f, 0xffff, 0xfc03, 0xcfdf, 0xff8f, 0x7fff, 0xfe38, 0xffff, 0xffff,
   0x1fff, 0xff80, 0x3dff, 0x0e7e, 0x0000, 0x1800, 0xffff, 0xdf8f, 0xffff,
   0xf800, 0xcfdf, 0xffff, 0x7fff, 0xfe04, 0xffff, 0xffff, 0x1fff, 0xff00,
   0x79ff, 0x1ffe, 0x0000, 0x0800, 0xffff, 0xff07, 0x7fff, 0xf8fc, 0xcf87,
   0xffff, 0x7cff, 0xff80, 0xffff, 0xffff, 0x1fff, 0xff80, 0xffff, 0x1ffe,
   0x0000, 0x0c00, 0xfffe, 0xffc3, 0xffff, 0xffff, 0xffe7, 0xffff, 0xffbf,
   0xffe0, 0xffff, 0xffff, 0x1fff, 0xffc0, 0xffff, 0x1fde, 0x0000, 0x0c00,
   0xfffe, 0xffff, 0xffff, 0xffff, 0xffff, 0xffff, 0xffcf, 0xffff, 0xffff,
   0xffff, 0x1fff, 0xfffe, 0xffff, 0x0fdd, 0x0000, 0x0600, 0xfffe, 0xffff,
   0xffff, 0xffff, 0xffff, 0xffff, 0xffc1, 0xffff, 0xffdf, 0xffff, 0xffff,
   0xffff, 0xffff, 0x0fc3, 0x0000, 0x0600, 0xfffc, 0xffef, 0xffff, 0xffff,
   0xffff, 0x7fff, 0xfffc, 0xffff, 0xffdf, 0xffe7, 0xffff, 0xffff, 0xffff,
   0x0fff, 0x0000, 0xe600, 0xffff, 0xffe1, 0xf7ff, 0xffff, 0xbfff, 0xffff,
   0xffff, 0xffff, 0xffff, 0xffe1, 0xfffe, 0xffff, 0xffff, 0x0fff, 0x0000,
   0x0000, 0x0000, 0xffc0, 0xf1ff, 0xffff, 0xff7f, 0xffff, 0xfff1, 0xffff,
   0xffff, 0x7fc0, 0xfffe, 0x7fff, 0xffff, 0x0fff, 0x0000, 0x0000, 0x0000,
   0x0000, 0xc07f, 0xffff, 0xfe07, 0xfc7f, 0xffff, 0xffff, 0xffff, 0xffff,
   0x9ffe, 0x3fff, 0xffff, 0x001f, 0x0000, 0x0000, 0x0000, 0x0000, 0x0000,
   0x0000, 0x0000, 0x0000, 0x0000, 0x0000, 0x0000, 0x0000, 0x0000, 0x0000,
   0x0000, 0x0000, 0x0000, 0x0000, 0x0000, 0x0000, 0x0000, 0x0000, 0x0000,
   0x0000, 0x0000, 0x0000, 0x0000, 0x0000, 0x0000, 0x0000, 0x0000, 0x0000,
   0x0000, 0x0000, 0x0000, 0x0000, 0x0000, 0x0000, 0x0000, 0x0000, 0x0000,
   0x0000, 0x0000, 0x0000, 0x0000, 0x0000, 0x0000, 0x0000, 0x0000, 0x0000,
   0x0000, 0x0000, 0x0000, 0x0000, 0x0000, 0x0000, 0x0000, 0x0000, 0x0000,
   0x0000, 0x0000, 0x0000, 0x0000, 0x0000, 0x0000, 0x0000, 0x0000, 0x0000,
   0x0000, 0x0000, 0x0000, 0x0000, 0x0000, 0x0000, 0x0000, 0x0000, 0x0000,
   0x0000, 0x0000, 0x0000, 0x0000, 0x0000, 0x0000, 0x0000, 0x0000, 0x0000,
   0x0000, 0x0000, 0x0000, 0x0000, 0x0000, 0x0000, 0x0000, 0x0000, 0x0000,
   0x0000, 0x0000, 0x0000, 0x0000, 0x0000, 0x0000, 0x0000, 0x0000, 0x0000,
   0x0000, 0x0000, 0x0000, 0x0000, 0x0000, 0x0000, 0x0000, 0x0000, 0x0000,
   0x0000, 0x0000, 0x0000, 0x0000, 0x0000, 0x0000, 0x0000, 0x0000, 0x0000,
   0x0000, 0x0000, 0x0000, 0x0000, 0x0000, 0x0000, 0x0000, 0x0000, 0x0000,
   0x0000, 0x0000, 0x0000, 0x0000, 0x0000, 0x0000, 0x0000, 0x0000, 0x0000,
   0x0000, 0x0000, 0x0000, 0x0000, 0x0000, 0x0000, 0x0000, 0x0000, 0x0000,
   0x0000, 0x0000, 0x0000, 0x0000, 0x0000, 0x0000, 0x0000, 0x0000, 0x0000,
   0x0000, 0x0000, 0x0000, 0x0000, 0x0000, 0x0000, 0x0000, 0x0000, 0x0000,
   0x0000, 0x0000, 0x0000, 0x0000, 0x0000, 0x0000, 0x0000, 0x0000, 0x0000,
   0x0000, 0x0000, 0x0000, 0x0000, 0x0000, 0x0000, 0x0000, 0x0000, 0x0000,
   0x0000, 0x0000, 0x0000, 0x0000, 0x0000, 0x0000, 0x0000, 0x0000, 0x0000,
   0x0000, 0x0000, 0x0000, 0x0000, 0x0000, 0x0000, 0x0000, 0x0000, 0x0000,
   0x0000, 0x0000, 0x0000, 0x0000, 0x0000, 0x0000, 0x0000, 0x0000, 0x0000,
   0x0000, 0x0000, 0x0000, 0x0000, 0x0000, 0x0000, 0x0000, 0x0000, 0x0000,
   0x0000, 0x0000, 0x0000, 0x0000, 0x0000, 0x0000, 0x0000, 0x0000, 0x0000,
   0x0000, 0x0000, 0x0000, 0x0000, 0x0000, 0x0000, 0x0000, 0x0000, 0x0000,
   0x0000, 0x0000, 0x0000, 0x0000, 0x0000, 0x0000, 0x0000, 0x0000, 0x0000,
   0x0000, 0x0000, 0x0000, 0x0000, 0x0000, 0x0000, 0x0000, 0x0000, 0x0000,
   0x0000, 0x0000, 0x0000, 0x0000, 0x0000, 0x0000, 0x0000, 0x0000, 0x0000,
   0x0000, 0x0000, 0x0000, 0x0000, 0x0000, 0x0000, 0x0000 };
