#define lofazis_04_width 80
#define lofazis_04_height 61
static unsigned short lofazis_04_bits[] = {
   0x0000, 0x0000, 0x0000, 0x0000, 0x8000, 0x0000, 0x0000, 0x0000, 0x0000,
   0x8000, 0x0000, 0x0000, 0x0000, 0x0000, 0x0000, 0x0000, 0x0000, 0x0000,
   0x0000, 0x0000, 0x0000, 0x0000, 0x0000, 0x0000, 0x0003, 0x0000, 0x0000,
   0x0000, 0xe000, 0x0003, 0x0000, 0x0000, 0x0000, 0xf000, 0x000f, 0x0000,
   0x0000, 0x0000, 0xf800, 0x003f, 0x0000, 0x0000, 0x0000, 0xfe00, 0x007f,
   0x0000, 0x0000, 0x0000, 0xff00, 0x00ff, 0x0000, 0x0000, 0x0000, 0xfe00,
   0x01ff, 0x0000, 0x0000, 0x0000, 0xff00, 0x03ff, 0x0000, 0x0000, 0x0000,
   0xffc0, 0x07ff, 0x0000, 0x0000, 0x0000, 0xffe0, 0x0fff, 0x0000, 0x0000,
   0x0000, 0xffe0, 0x1fff, 0x0004, 0x0000, 0x0000, 0xffe0, 0xbff3, 0x0004,
   0x0000, 0x0000, 0xffe0, 0x3e01, 0x0000, 0xfc00, 0x403f, 0xffff, 0x0000,
   0x0000, 0xfe00, 0xffff, 0xffff, 0x0000, 0x0000, 0xffe0, 0xffff, 0xffff,
   0x0000, 0x0000, 0xfff8, 0xffff, 0xffff, 0x0000, 0x0000, 0xfffc, 0xffff,
   0xffff, 0x0000, 0xc000, 0xffff, 0xffff, 0x7fff, 0x0000, 0xf800, 0xffff,
   0xffff, 0x7fff, 0x0000, 0xfe00, 0xffff, 0xffff, 0x7fff, 0x0000, 0xff80,
   0xffe0, 0xffff, 0x3fff, 0x0000, 0x7fc0, 0xffe0, 0xffff, 0x3fff, 0x0000,
   0x3fee, 0xffc0, 0xffff, 0x3fff, 0x0000, 0x0ffc, 0xff80, 0xffff, 0x3fff,
   0x0000, 0x07f8, 0xff00, 0xffff, 0x3fff, 0x0000, 0x03f0, 0xfe00, 0xffff,
   0x3fff, 0x0000, 0x00e8, 0xfc00, 0xffff, 0x1fff, 0x0000, 0x0000, 0xfc00,
   0xffc7, 0x1fff, 0x0000, 0x0000, 0xfc00, 0xfc07, 0x7fff, 0x0000, 0x0000,
   0xfe00, 0x0007, 0xfff8, 0x0000, 0x0000, 0xfe00, 0x0007, 0xfff8, 0x0001,
   0x0000, 0xfe00, 0x0007, 0xfff8, 0x0001, 0x0000, 0xbe00, 0x0007, 0xe078,
   0x0003, 0x0000, 0xfe00, 0x0007, 0xe070, 0x0001, 0x0000, 0xfe00, 0x0007,
   0xe030, 0x0000, 0x0000, 0xf000, 0x1e0f, 0xf030, 0x0000, 0x0000, 0xc000,
   0x1fff, 0x7030, 0x0000, 0x0000, 0x0000, 0x3fff, 0x7c38, 0x0000, 0x0000,
   0x0000, 0xfffc, 0x7e3f, 0x0000, 0x0000, 0x0000, 0x1ff0, 0x0f1f, 0x0000,
   0x0000, 0x0000, 0x3ff0, 0x0780, 0x0000, 0x0000, 0x0000, 0x3c60, 0x0000,
   0x0000, 0x0000, 0x0000, 0x7840, 0x0000, 0x0000, 0x0000, 0x0000, 0x3800,
   0x0000, 0x0000, 0x0000, 0x0000, 0x0000, 0x0000, 0x0000, 0x0000, 0x0000,
   0x0000, 0x0000, 0x0000, 0x0000, 0x0000, 0x0000, 0x0000, 0x0000, 0x0000,
   0x0000, 0x0000, 0x0000, 0x0000, 0x0000, 0x0000, 0x0000, 0x0000, 0x0000,
   0x0000, 0x0000, 0x0000, 0x2b40, 0x410c, 0x0005, 0x0000, 0x0000, 0x0000,
   0x0000, 0x0000, 0x0000, 0x0000, 0x0000, 0x0000, 0x0000, 0x0000, 0x0000,
   0x0000, 0x2000, 0x0000, 0x0000, 0x0000, 0x0000, 0x1000, 0x0000, 0x0000,
   0x0000, 0x0000, 0xf800, 0x0000, 0x0000, 0x0000, 0x0000, 0x7800 };
