#define lofazis_08_width 80
#define lofazis_08_height 61
static unsigned short lofazis_08_bits[] = {
   0x0000, 0x0000, 0x0000, 0x0000, 0x0000, 0x0000, 0x0000, 0x0000, 0x0000,
   0x0000, 0x0000, 0x0000, 0x0000, 0x0000, 0x0000, 0x0000, 0x0000, 0x0000,
   0x0000, 0x0000, 0x0000, 0x0000, 0x0000, 0x0000, 0x0000, 0x0000, 0x0000,
   0x0000, 0x0000, 0x000e, 0x0000, 0x0000, 0x0000, 0x0000, 0x001e, 0x0000,
   0x0000, 0x0000, 0x0000, 0x003f, 0x0000, 0x0000, 0x0000, 0xf800, 0x007f,
   0x0000, 0x0000, 0x0000, 0xff00, 0x01ff, 0x0000, 0x0000, 0x0000, 0xff00,
   0x01ff, 0x0000, 0x0000, 0x0000, 0xff00, 0x03ff, 0x0000, 0x0000, 0x0000,
   0xff00, 0x07ff, 0x0000, 0x0000, 0x0000, 0xfe00, 0x0fff, 0x0000, 0x0000,
   0x0000, 0xff00, 0x1fff, 0x0000, 0x0000, 0x0000, 0xffc0, 0x3fff, 0x0000,
   0x0000, 0x0000, 0xfff0, 0x7fef, 0x0000, 0x0000, 0x0000, 0xfffc, 0x7f0f,
   0x0000, 0xf000, 0x0003, 0xfffe, 0x7c0f, 0x0000, 0xffe0, 0xffff, 0xffff,
   0x3803, 0x0000, 0xfff0, 0xffff, 0xffff, 0x0003, 0x0000, 0xfffe, 0xffff,
   0xffff, 0x0003, 0xf000, 0xffbf, 0xffff, 0xffff, 0x0001, 0xfc00, 0xff9f,
   0xffff, 0xffff, 0x0000, 0xff80, 0xff8f, 0xffff, 0xffff, 0x0000, 0xffc0,
   0xff8f, 0xffff, 0xffff, 0x0000, 0xffc0, 0xffc1, 0xffff, 0x7fff, 0x0000,
   0x7fe0, 0xffc0, 0xffff, 0x7fff, 0x0000, 0x0ff0, 0xffc0, 0xffff, 0x7fff,
   0x0000, 0x00fe, 0xffc0, 0xffff, 0x7fff, 0x8000, 0x003f, 0xffc0, 0xffff,
   0x7fff, 0x0000, 0x0010, 0xff80, 0xffff, 0x7fff, 0x0000, 0x0000, 0xffc0,
   0xffff, 0xffff, 0x0000, 0x0000, 0xffc0, 0xff83, 0xffff, 0x0003, 0x0000,
   0xffe0, 0xfc01, 0xffff, 0x000f, 0x0000, 0xfff0, 0x0001, 0xff00, 0x001f,
   0x0001, 0x7ffe, 0x0000, 0xf800, 0x001f, 0x0000, 0x3cfe, 0x0000, 0xf800,
   0x003c, 0x0000, 0x1e7f, 0x0000, 0xf000, 0x0030, 0x0000, 0x1f1f, 0x0000,
   0xf000, 0x0030, 0x0000, 0x0f0f, 0x0000, 0xe000, 0x0061, 0x0000, 0x070f,
   0x0000, 0xe000, 0x0061, 0x0000, 0x0387, 0x0000, 0xc000, 0x00e3, 0x8000,
   0x0387, 0x0000, 0xc000, 0x00e3, 0x8000, 0x0383, 0x0000, 0x8000, 0x01e3,
   0x8000, 0x0303, 0x0000, 0x0000, 0x01ef, 0x8000, 0x0303, 0x0000, 0x0000,
   0x03ef, 0x8000, 0x0303, 0x0000, 0x0000, 0x03ff, 0xc000, 0x0301, 0x0000,
   0x0000, 0x039e, 0xf000, 0x0701, 0x0000, 0x0000, 0x007c, 0xfc00, 0x0700,
   0x0000, 0x0000, 0x00f0, 0x7c01, 0x0f00, 0x0000, 0x0000, 0x00f0, 0x7801,
   0x3f00, 0x0000, 0x0000, 0x01e0, 0x3800, 0x3e00, 0x0000, 0x0000, 0x0000,
   0x0800, 0x7c00, 0x0000, 0x0000, 0x0000, 0x01df, 0xfdc0, 0x0000, 0xf73e,
   0xfffe, 0x0000, 0x0000, 0x0000, 0x0000, 0x0000, 0x0000, 0x0000, 0x0000,
   0x0000, 0x6000, 0x0000, 0x0000, 0x0000, 0x0000, 0x7000, 0x0000, 0x0000,
   0x0000, 0x0000, 0x3800, 0x0000, 0x0000, 0x0000, 0x0000, 0x3800 };
