#define lofazis_02_width 80
#define lofazis_02_height 61
static unsigned short lofazis_02_bits[] = {
   0x0000, 0x0000, 0x0000, 0x0000, 0x0000, 0x0000, 0x0000, 0x0000, 0x0000,
   0x0000, 0x0000, 0x0000, 0x0000, 0x0000, 0x0000, 0x0000, 0x0000, 0x0000,
   0x0000, 0x0000, 0x0000, 0x0000, 0x0000, 0x0000, 0x0000, 0x0000, 0x0000,
   0x0000, 0x0000, 0x0000, 0x0000, 0x0000, 0x0000, 0x0000, 0x0000, 0x0000,
   0x0000, 0x0000, 0x8000, 0x8003, 0x0000, 0x0000, 0x0000, 0xe000, 0x801f,
   0x0000, 0x0000, 0x0000, 0xf800, 0x801f, 0x0002, 0x0000, 0x0000, 0xfc00,
   0x803f, 0x0000, 0x0000, 0x0000, 0xff00, 0x01ff, 0x0000, 0x0000, 0x0000,
   0xff80, 0x03ff, 0x0000, 0x0000, 0x0000, 0xff80, 0x07ff, 0x0000, 0x0000,
   0x0000, 0xffc0, 0x07ff, 0x0000, 0x0000, 0x0000, 0xffc0, 0x0fff, 0x0000,
   0x0000, 0x0000, 0xffc0, 0x1fff, 0x0000, 0x0000, 0x0000, 0xffe0, 0x0f00,
   0x0000, 0x0000, 0x0000, 0xfff0, 0x0400, 0x0000, 0xf000, 0x0007, 0xfff8,
   0x0000, 0x0000, 0xfe00, 0x003f, 0x7ffe, 0x0000, 0x0000, 0xffc0, 0xffff,
   0x7fff, 0x0000, 0x0000, 0xfffc, 0xffff, 0x7fff, 0x0000, 0x0000, 0xffff,
   0xffff, 0x7fff, 0x0000, 0xc700, 0xffff, 0xffff, 0x3fff, 0x0000, 0xffc0,
   0xffff, 0xffff, 0x3fff, 0x0000, 0xfff8, 0xffff, 0xffff, 0x3fff, 0x0000,
   0xfff8, 0xffff, 0xffff, 0x3fff, 0x0000, 0xfffc, 0xffff, 0xffff, 0x3fff,
   0x0000, 0xfff8, 0xffff, 0xffff, 0x3fff, 0x0000, 0xffe0, 0xfff7, 0xffff,
   0x3fff, 0x0000, 0xc7e0, 0xfff1, 0xffff, 0x1fff, 0x0000, 0x4030, 0xffe0,
   0xffff, 0x1fff, 0x0000, 0x0010, 0xff80, 0xffff, 0x1fff, 0x0000, 0x0000,
   0xff80, 0xffe0, 0x07ff, 0x0000, 0x0000, 0xff80, 0xff80, 0x01ff, 0x0000,
   0x0000, 0xffe0, 0xf800, 0x00ff, 0x0000, 0x0000, 0x7ff0, 0x0000, 0x00fe,
   0x0000, 0x0000, 0x3ff8, 0x0000, 0x01ff, 0x0000, 0x0000, 0x1ff0, 0x0000,
   0x01ff, 0x0000, 0x0000, 0x0ff0, 0x8000, 0x01f7, 0x0000, 0x0000, 0x0ff0,
   0xf000, 0x01e7, 0x0000, 0x0000, 0x1fc0, 0xf000, 0x03c3, 0x0000, 0x0000,
   0x3fc0, 0xe000, 0x03ff, 0x0000, 0x0000, 0xff00, 0xc001, 0x03ff, 0x0000,
   0x0000, 0xee00, 0xe007, 0x009f, 0x0000, 0x0000, 0x9c00, 0xe00f, 0x0000,
   0x0000, 0x0000, 0x1c00, 0x600f, 0x0000, 0x0000, 0x0000, 0x1c00, 0x700e,
   0x0000, 0x0000, 0x0000, 0x1c00, 0x701e, 0x0000, 0x0000, 0x0000, 0x1c00,
   0x701c, 0x0000, 0x0000, 0x0020, 0x1800, 0x3800, 0x0000, 0x0000, 0x0000,
   0x0800, 0x3c00, 0x0000, 0x0000, 0x0020, 0x0000, 0x3c00, 0x0000, 0x0000,
   0x0000, 0x0000, 0x7000, 0x0000, 0x0000, 0x0000, 0x0000, 0x7000, 0x0000,
   0x0000, 0x0000, 0x0000, 0x7000, 0x0000, 0x0100, 0x0000, 0x0000, 0xfe40,
   0xf7fb, 0x0183, 0x0020, 0x0000, 0x0000, 0x0000, 0x0000, 0x0020, 0x0000,
   0x0000, 0x0000, 0x3000, 0x0000, 0x0000, 0x0000, 0x0000, 0x7000 };
