#define lofazis_11_width 80
#define lofazis_11_height 61
static unsigned short lofazis_11_bits[] = {
   0x0000, 0x0000, 0x0000, 0x0000, 0x0000, 0x0000, 0x0000, 0x0000, 0x0000,
   0x0000, 0x0000, 0x0000, 0x0000, 0x0000, 0x0000, 0x0000, 0x0000, 0x0000,
   0x0000, 0x0000, 0x0000, 0x0000, 0x0000, 0x0000, 0x0010, 0x0000, 0x0000,
   0x0000, 0x8000, 0x003f, 0x0000, 0x0000, 0x0000, 0xf800, 0x007f, 0x0000,
   0x0000, 0x0000, 0xf800, 0x007f, 0x0000, 0x0000, 0x0000, 0xf000, 0x00ff,
   0x0000, 0x0000, 0x0000, 0xfe00, 0x01ff, 0x0000, 0x0000, 0x0000, 0xff00,
   0x07ff, 0x0000, 0x0000, 0x0000, 0xff00, 0x0fff, 0x0000, 0x0000, 0x0000,
   0xff00, 0x1fff, 0x0000, 0x0000, 0x0000, 0xffc0, 0x1fff, 0x0000, 0x0000,
   0x0000, 0xffe0, 0x3fff, 0x0000, 0x0000, 0x0000, 0xfff0, 0x3f8f, 0x0000,
   0x0000, 0x0000, 0xfffc, 0x7f0f, 0x0000, 0xf800, 0xffff, 0xffff, 0x3c03,
   0x0000, 0xffe0, 0xffff, 0xffff, 0x0001, 0x0000, 0xfffc, 0xffff, 0xffff,
   0x0000, 0x8000, 0xffff, 0xffff, 0xffff, 0x0000, 0xf070, 0xffff, 0xffff,
   0xffff, 0x0000, 0xfffe, 0xffff, 0xffff, 0xffff, 0x0000, 0xfff8, 0xffcf,
   0xffff, 0x7fff, 0x0000, 0xffe0, 0xffc7, 0xffff, 0x7fff, 0x0000, 0xffc0,
   0xffe3, 0xffff, 0x7fff, 0x0000, 0xff80, 0xffe3, 0xffff, 0x7fff, 0x0000,
   0x3f80, 0xffe0, 0xffff, 0x7fff, 0x0000, 0x0000, 0xfff0, 0xffff, 0x7fff,
   0x0000, 0x0000, 0xfff0, 0xffff, 0x3fff, 0x0000, 0x0000, 0xffff, 0xffff,
   0x3fff, 0x0000, 0xf000, 0x1fff, 0xffc0, 0x3fff, 0x0000, 0xf800, 0x0fff,
   0x0000, 0x3ffc, 0x0000, 0xf000, 0x07ff, 0x0000, 0x3efe, 0x0000, 0xf000,
   0x03ff, 0x0000, 0x3c7e, 0x0000, 0xf000, 0x003f, 0x0000, 0x7c3e, 0x0000,
   0xf000, 0x0007, 0x0000, 0x781e, 0x0000, 0xf000, 0x0001, 0x0000, 0xf007,
   0x0000, 0xf000, 0x0000, 0x0000, 0xf007, 0x0000, 0xf808, 0x0000, 0x8000,
   0xe003, 0x0000, 0xfc08, 0x0000, 0x8000, 0xe003, 0x0001, 0xfc00, 0x0000,
   0xc000, 0xc001, 0x0001, 0xfc00, 0x0000, 0xc000, 0x8001, 0x0003, 0xf7c0,
   0x0000, 0xe000, 0x0001, 0x000f, 0x77c0, 0x0000, 0xf000, 0x0000, 0x001e,
   0x7fc0, 0x0000, 0xf000, 0x0000, 0x003e, 0x7c60, 0x0000, 0x7800, 0x0000,
   0x007c, 0x7c00, 0x0000, 0x7800, 0x0000, 0x01fc, 0x7800, 0x0000, 0x7800,
   0x0000, 0x03f0, 0x7800, 0x0000, 0x7800, 0x0000, 0x07c0, 0x0000, 0x0000,
   0xf000, 0x0001, 0x0000, 0x0000, 0x0000, 0xf000, 0xe001, 0xfff1, 0x0000,
   0x0000, 0xffa0, 0x0563, 0x0400, 0xbc00, 0xffff, 0x0183, 0x0000, 0x0c00,
   0xbfff, 0x0000, 0x0000, 0x0000, 0x0000, 0x0000, 0x0000, 0x0000, 0x0000,
   0x0000, 0x0000, 0x0000, 0x0000, 0x0000, 0x7000, 0x0000, 0x0000, 0x0000,
   0x0000, 0x3800, 0x0000, 0x0000, 0x0000, 0x0000, 0x3c00, 0x0000, 0x0000,
   0x0000, 0x0000, 0x2a00, 0x0000, 0x0000, 0x0000, 0x0000, 0x2800 };
