#define lofazis_10_width 80
#define lofazis_10_height 61
static unsigned short lofazis_10_bits[] = {
   0x0000, 0x0000, 0x0000, 0x0000, 0x0000, 0x0000, 0x0000, 0x0000, 0x0000,
   0x0000, 0x0000, 0x0000, 0x0000, 0x0000, 0x0000, 0x0000, 0x0000, 0x0000,
   0x0000, 0x0000, 0x0000, 0x0000, 0x0000, 0x0000, 0x0010, 0x0000, 0x0000,
   0x0000, 0xe000, 0x003f, 0x0000, 0x0000, 0x0000, 0xe000, 0x003f, 0x0000,
   0x0000, 0x0000, 0xf800, 0x007f, 0x0000, 0x0000, 0x0000, 0xfc00, 0x01ff,
   0x0000, 0x0000, 0x0000, 0xfc00, 0x03ff, 0x0000, 0x0000, 0x0000, 0xfe00,
   0x07ff, 0x0000, 0x0000, 0x0000, 0xff00, 0x07ff, 0x0000, 0x0000, 0x0000,
   0xff80, 0x0fff, 0x0000, 0x0000, 0x0000, 0xff80, 0x1fff, 0x0000, 0x0000,
   0x0000, 0xffc0, 0x3fff, 0x0000, 0x0000, 0x0000, 0xfffc, 0x3c03, 0x0000,
   0xfc00, 0x8021, 0xffff, 0x3801, 0x0000, 0xfff0, 0xffff, 0xffff, 0x0001,
   0x0000, 0xfffc, 0xffff, 0xffff, 0x0000, 0x0000, 0xffff, 0xffff, 0xffff,
   0x0000, 0xf000, 0xffff, 0xffff, 0xffff, 0x0000, 0xfffc, 0xffff, 0xffff,
   0x7fff, 0x0000, 0xfffe, 0xfff7, 0xffff, 0x7fff, 0x0000, 0xfffe, 0xfff7,
   0xffff, 0x7fff, 0x0000, 0xfffe, 0xfff9, 0xffff, 0x7fff, 0x0000, 0xfffe,
   0xfff8, 0xffff, 0x7fff, 0x0000, 0x0ff8, 0xfff8, 0xffff, 0x7fff, 0x0000,
   0x07c0, 0xfff8, 0xffff, 0x3fff, 0x0000, 0x0000, 0xfffc, 0xffff, 0x3fff,
   0x0000, 0x0000, 0xfffe, 0xffff, 0x3fff, 0x0000, 0x8000, 0xffff, 0xffff,
   0x7fff, 0x0000, 0xf800, 0x07ff, 0xfff8, 0xffff, 0x0000, 0xfc00, 0x03ff,
   0x0f80, 0xfff0, 0x0000, 0xfe00, 0x00ff, 0x0000, 0xfcf0, 0x0001, 0xff00,
   0x007d, 0x0000, 0xf0f0, 0x0003, 0x07c0, 0x001f, 0x0000, 0x80f0, 0x000f,
   0x83c0, 0x000f, 0x0000, 0x0078, 0x003f, 0xc1e0, 0x0007, 0x0000, 0x0078,
   0x007e, 0xf0e0, 0x0007, 0x0000, 0x0038, 0x00fc, 0xf070, 0x0003, 0x0000,
   0x0038, 0x01f0, 0xf07b, 0x0001, 0x0000, 0x0038, 0x03e0, 0xf81f, 0x0000,
   0x0000, 0x0038, 0x1f80, 0xf80f, 0x0000, 0x0000, 0x0038, 0xff00, 0xf803,
   0x0000, 0x0000, 0x0038, 0xfe00, 0x7800, 0x0000, 0x0000, 0x0038, 0xfc00,
   0x7800, 0x0000, 0x0000, 0x001c, 0x3000, 0x3800, 0x0000, 0x0000, 0x001c,
   0x0000, 0x3f00, 0x0000, 0x0000, 0x001c, 0x0000, 0x0f80, 0x0000, 0x0000,
   0x001e, 0x0000, 0x0780, 0x0000, 0x0000, 0x003e, 0x0000, 0x03c0, 0x0000,
   0x0000, 0x003e, 0x0000, 0x00c0, 0x0000, 0x0000, 0x003c, 0x0000, 0x0000,
   0x0000, 0x0000, 0x8078, 0xffff, 0x8011, 0xe020, 0x1608, 0x8001, 0x0000,
   0x0011, 0x0000, 0x0000, 0x0000, 0x0000, 0x0000, 0x0000, 0x0000, 0x0000,
   0x0800, 0x0000, 0x0000, 0x0000, 0x0000, 0x4c00, 0x0000, 0x0000, 0x0000,
   0x0000, 0xe600, 0x0000, 0x0000, 0x0000, 0x0000, 0xf000, 0x0000, 0x0000,
   0x0000, 0x0000, 0xd000, 0x0000, 0x0000, 0x0000, 0x0000, 0x7400 };
