#define lofazis_12_width 80
#define lofazis_12_height 61
static unsigned short lofazis_12_bits[] = {
   0x0000, 0x0000, 0x0000, 0x0000, 0x0000, 0x0000, 0x0000, 0x0000, 0x0000,
   0x0000, 0x0000, 0x0000, 0x0000, 0x0000, 0x0000, 0x0000, 0x0000, 0x0000,
   0x0000, 0x0000, 0x0000, 0x0000, 0x0000, 0x0000, 0x0000, 0x0000, 0x0000,
   0x0000, 0x0000, 0x0000, 0x0000, 0x0000, 0x0000, 0xc000, 0x0000, 0x0000,
   0x0000, 0x0000, 0xe000, 0x0001, 0x0000, 0x0000, 0x0000, 0xf800, 0x0001,
   0x0000, 0x0000, 0x0000, 0xfe00, 0x001f, 0x0000, 0x0000, 0x0000, 0xff00,
   0x003f, 0x0000, 0x0000, 0x0000, 0xff80, 0x407f, 0x0000, 0x0000, 0x0000,
   0xffc0, 0x00ff, 0x0000, 0x0000, 0x0000, 0xffc0, 0x01ff, 0x0000, 0x0000,
   0x0000, 0xffc0, 0x01ff, 0x0000, 0x0000, 0x0000, 0xffe0, 0x03ff, 0x0000,
   0x0000, 0x0000, 0xfff0, 0x07fe, 0x0000, 0x0000, 0x0000, 0x7ff0, 0x07c0,
   0x0000, 0x0000, 0x0000, 0x7ff8, 0x0180, 0x0000, 0x0000, 0x0000, 0x3ffc,
   0x0000, 0x0000, 0xfc00, 0x001f, 0x3fff, 0x0000, 0x0000, 0xff20, 0xffff,
   0x3fff, 0x0000, 0x0000, 0xfffe, 0xffff, 0x1fff, 0x0000, 0xc080, 0xffff,
   0xffff, 0x1fff, 0x0000, 0xffb8, 0xffff, 0xffff, 0x0fff, 0x0000, 0xfff8,
   0xffcf, 0xffff, 0x0fff, 0x0000, 0xfff0, 0xffc7, 0xffff, 0x0fff, 0x4000,
   0xffe0, 0xffc1, 0xffff, 0x0fff, 0x4000, 0xffc0, 0xffc0, 0xffff, 0x0fff,
   0x0000, 0x0780, 0xffc0, 0xffff, 0x0fff, 0x0000, 0x0300, 0xffe0, 0xffff,
   0x07ff, 0x0000, 0x0000, 0xffe0, 0xffff, 0x07ff, 0x0000, 0x0000, 0xffe0,
   0xffff, 0x07ff, 0x0000, 0x0000, 0xffe0, 0xffff, 0x03ff, 0x0000, 0x8000,
   0x3fff, 0xffe0, 0x03ff, 0x0000, 0x8000, 0x0fff, 0xff80, 0x01ff, 0x0000,
   0xc000, 0x07ff, 0x0000, 0x01ff, 0x0000, 0xc000, 0x00ff, 0x8000, 0x00ff,
   0x0000, 0xc000, 0x000f, 0x8000, 0x00ff, 0x0000, 0xc000, 0x000f, 0x8000,
   0x00ff, 0x0000, 0xc000, 0x000f, 0xc000, 0x00ff, 0x0000, 0xf000, 0x000f,
   0xc000, 0x00f7, 0x0000, 0xf000, 0x001c, 0xc000, 0x00f7, 0x0000, 0x7800,
   0x0018, 0xe040, 0x01f3, 0x0000, 0x7800, 0x0038, 0xf9e0, 0x00f1, 0x0000,
   0x3e00, 0x0038, 0xfff0, 0x01f0, 0x4000, 0x3e00, 0x0038, 0x3ff0, 0x01e0,
   0x4000, 0x3f00, 0x003c, 0x07f8, 0x01e0, 0x4000, 0x0780, 0x003c, 0x0000,
   0x01e0, 0x4000, 0x0000, 0x0018, 0x0000, 0x01e0, 0x4000, 0x0000, 0x0000,
   0x0000, 0x01e0, 0x4000, 0x0002, 0x0000, 0x0000, 0x03c0, 0x4000, 0x0000,
   0x0000, 0x0000, 0x07c0, 0x4000, 0x0000, 0x0000, 0x0000, 0x0fc0, 0x4000,
   0x0000, 0x0000, 0x0000, 0x1f80, 0xd000, 0x0000, 0x0000, 0x0000, 0xbf00,
   0xfff2, 0xf322, 0x000a, 0x0000, 0x0000, 0x0000, 0x000b, 0x0000, 0x0000,
   0x0000, 0xc000, 0x0000, 0x0000, 0x0000, 0x0000, 0xc680, 0x0002, 0x0000,
   0x0000, 0x0000, 0x86c0, 0x0000, 0x0000, 0x0040, 0x0000, 0x84e0 };
