#define lofazis_01_width 80
#define lofazis_01_height 61
static unsigned short lofazis_01_bits[] = {
   0x0000, 0x0000, 0x0000, 0x0000, 0x0000, 0x0000, 0x0000, 0x0000, 0x0000,
   0x0000, 0x0000, 0x0000, 0x0000, 0x0000, 0x0000, 0x0000, 0x0000, 0x0000,
   0x0000, 0x0000, 0x0000, 0x0000, 0x0000, 0x0000, 0x0000, 0x0000, 0x0000,
   0x0000, 0x0000, 0x0000, 0x0000, 0x0000, 0x0000, 0x0000, 0x0000, 0x0000,
   0x0000, 0x0000, 0x0000, 0x0000, 0x0000, 0x0000, 0x0000, 0x0000, 0x0002,
   0x0000, 0x0000, 0x0000, 0x0000, 0x000f, 0x0000, 0x0000, 0x0000, 0x8000,
   0x001f, 0x0002, 0x0000, 0x0000, 0xfc00, 0x007f, 0x0000, 0x0000, 0x0000,
   0xfc00, 0x00ff, 0x0000, 0x0000, 0x0000, 0xfc00, 0x01ff, 0x0000, 0x0000,
   0x0000, 0xff80, 0x03ff, 0x0000, 0x0000, 0x0000, 0xff80, 0x07ff, 0x0000,
   0x0000, 0x0000, 0xffc0, 0x1fff, 0x0000, 0x0000, 0x0000, 0xfff0, 0x3fff,
   0x0000, 0x0000, 0x0000, 0xfff0, 0x3fe3, 0x0000, 0x0000, 0x0000, 0xffe0,
   0x3e01, 0x0000, 0x0000, 0x0000, 0xfff0, 0x0001, 0x0000, 0xf800, 0x0007,
   0xfffc, 0x0000, 0x0000, 0xff80, 0xc01f, 0xffff, 0x0000, 0x0000, 0xffe0,
   0xffff, 0xffff, 0x0000, 0x8000, 0xffff, 0xffff, 0xffff, 0x0000, 0xf800,
   0xffff, 0xffff, 0xffff, 0x0000, 0xfe18, 0xffff, 0xffff, 0x7fff, 0x0000,
   0xfff0, 0xffff, 0xffff, 0x7fff, 0x0000, 0xfff0, 0xffdf, 0xffff, 0x7fff,
   0x0000, 0xfff0, 0xffcf, 0xffff, 0x7fff, 0x0000, 0xffe0, 0xff83, 0xffff,
   0x7fff, 0x0000, 0x0f00, 0xff00, 0xffff, 0x7fff, 0x0000, 0x0000, 0xfe00,
   0xffff, 0x7fff, 0x0000, 0x0000, 0xff00, 0xffff, 0x3fff, 0x0000, 0x0000,
   0xff80, 0xffff, 0x1fff, 0x0000, 0x0000, 0xfffc, 0xfff3, 0x0fff, 0x0000,
   0x0000, 0xfffc, 0xffc0, 0x07ff, 0x0000, 0x0000, 0x3ffc, 0xfe00, 0x03ff,
   0x0000, 0x0000, 0x07fc, 0x0000, 0x007c, 0x0000, 0x0000, 0x00fc, 0x0000,
   0x007c, 0x0000, 0x0000, 0x00fc, 0x0000, 0x007c, 0x0000, 0x0000, 0x01ce,
   0x0000, 0x003c, 0x0000, 0x0000, 0x03ce, 0x0600, 0x003c, 0x0000, 0x0000,
   0x078e, 0x0780, 0x001c, 0x0000, 0x0000, 0x0f0e, 0xff80, 0x001f, 0x0000,
   0x8000, 0x1e0e, 0xf800, 0x001f, 0x0000, 0x8000, 0x1c0f, 0xc000, 0x000f,
   0x0000, 0x8004, 0x380f, 0x0000, 0x000c, 0x0000, 0xc000, 0x380f, 0x0000,
   0x000c, 0x0000, 0xc000, 0x3c01, 0x0000, 0x000c, 0x0000, 0x4000, 0x3800,
   0x0000, 0x000c, 0x0000, 0x0000, 0x0000, 0x0000, 0x0004, 0x0000, 0x0000,
   0x0000, 0x0000, 0x0004, 0x0000, 0x0000, 0x0000, 0x0000, 0x0006, 0x0000,
   0x0000, 0x0000, 0x0000, 0x0006, 0x0000, 0x0000, 0x0000, 0x0000, 0x000e,
   0x0000, 0x0000, 0x0000, 0x0000, 0x001c, 0x0000, 0x0000, 0x0000, 0x0800,
   0x003c, 0x0000, 0x0000, 0xc700, 0xffbf, 0x5ff7, 0x0000, 0xfff0, 0x0001,
   0x0000, 0x0000, 0x0000, 0x0000, 0x0000, 0x0000, 0x0000, 0x2000 };
