#define lofazis_07_width 80
#define lofazis_07_height 61
static unsigned short lofazis_07_bits[] = {
   0x0000, 0x0000, 0x0000, 0x0000, 0x0000, 0x0000, 0x0000, 0x0000, 0x0000,
   0x0000, 0x0000, 0x0000, 0x0000, 0x0000, 0x0000, 0x0000, 0x0000, 0x0000,
   0x0000, 0x0000, 0x0000, 0x0000, 0x0000, 0x0000, 0x0000, 0x0000, 0x0000,
   0x0000, 0x0000, 0x0000, 0x0000, 0x0000, 0x0000, 0x0000, 0x0000, 0x0000,
   0x0000, 0x0000, 0x0000, 0x001e, 0x0000, 0x0000, 0x0000, 0xe000, 0x003f,
   0x0000, 0x0000, 0x0000, 0xf800, 0x007f, 0x0010, 0x0000, 0x0000, 0xff00,
   0x007f, 0x0000, 0x0000, 0x0000, 0xff00, 0x00ff, 0x0000, 0x0000, 0x0000,
   0xff00, 0x01ff, 0x0000, 0x0000, 0x0000, 0xff00, 0x03ff, 0x0000, 0x0000,
   0x0000, 0xff80, 0x07ff, 0x0000, 0x0000, 0x0000, 0xffc0, 0x0fff, 0x0000,
   0x0000, 0x0000, 0xffc0, 0x3fc3, 0x0000, 0x2000, 0x0000, 0xfff0, 0x3f01,
   0x0000, 0xfc00, 0x0007, 0xfffc, 0x3e00, 0x0000, 0xffff, 0xffff, 0xffff,
   0x0c00, 0x8000, 0xffff, 0xffff, 0xffff, 0x0000, 0xc000, 0xffff, 0xffff,
   0x7fff, 0x0000, 0xf800, 0xffff, 0xffff, 0x7fff, 0x0000, 0xfc00, 0xffff,
   0xffff, 0x7fff, 0x0000, 0xfe00, 0xffff, 0xffff, 0x7fff, 0x0000, 0xff80,
   0xffdd, 0xffff, 0x3fff, 0x0000, 0xff80, 0xffc0, 0xffff, 0x3fff, 0x0000,
   0x7fc0, 0xffc0, 0xffff, 0x3fff, 0x0000, 0x7fc0, 0xffc0, 0xffff, 0x3fff,
   0x0000, 0x01c0, 0xffc0, 0xffff, 0x3fff, 0x0000, 0x01c0, 0xffc0, 0xffff,
   0x3fff, 0x8000, 0x00f8, 0xffc0, 0xffff, 0x7fff, 0x0000, 0x007c, 0xff80,
   0xffff, 0xffff, 0x000f, 0x0004, 0xff80, 0xfff3, 0xffff, 0x000f, 0x0000,
   0xff80, 0xffc3, 0xffff, 0x001f, 0x0000, 0xffc0, 0xe003, 0xffed, 0x001f,
   0x0000, 0xe7c0, 0x0003, 0x7e00, 0x801e, 0x0000, 0xe3e0, 0x0003, 0xf800,
   0x003e, 0x0000, 0xe1f0, 0x0003, 0xf000, 0x003f, 0x0000, 0xe0f0, 0x0003,
   0xc000, 0x007f, 0x0000, 0xc078, 0x0003, 0x8000, 0x007f, 0x0000, 0xc07c,
   0x0007, 0x8000, 0x007f, 0x0000, 0xc03c, 0x0007, 0x0000, 0x007f, 0x0000,
   0x803c, 0x0007, 0x0000, 0x01ff, 0x0000, 0x003c, 0x0007, 0x0000, 0x07ff,
   0x0000, 0x001c, 0x000e, 0x0000, 0x0fdf, 0x0000, 0x001c, 0x001e, 0x0000,
   0x1f8e, 0x0000, 0x001c, 0x003c, 0x0000, 0x1f02, 0x0000, 0x001c, 0x0038,
   0x0000, 0x0700, 0x0008, 0x000e, 0x01f8, 0x0000, 0x0000, 0x0000, 0x000e,
   0x03f0, 0x0000, 0x0000, 0x0008, 0x001e, 0x07f0, 0x0000, 0x8000, 0x0008,
   0x003f, 0x07c0, 0x0000, 0x8000, 0x0000, 0x003e, 0x0780, 0x0000, 0x0000,
   0x0000, 0x003c, 0x0f80, 0x0000, 0x0000, 0x403b, 0x9ffe, 0xdfc0, 0xef39,
   0xff9f, 0x0008, 0x0000, 0x0000, 0x0000, 0x0000, 0x0000, 0x0000, 0x0000,
   0x0000, 0x0000, 0x0008, 0x0000, 0x0000, 0x0000, 0x3600, 0x0000, 0x0000,
   0x0000, 0x0000, 0x3f00, 0x0008, 0x0000, 0x0000, 0x0000, 0x1b00 };
