#define lofazis_06_width 80
#define lofazis_06_height 61
static unsigned short lofazis_06_bits[] = {
   0x0000, 0x0000, 0x0000, 0x0000, 0x0000, 0x0000, 0x0000, 0x0000, 0x0000,
   0x0000, 0x0000, 0x0000, 0x0000, 0x0000, 0x0000, 0x0000, 0x0000, 0x0000,
   0x0000, 0x0003, 0x0000, 0x0000, 0x0000, 0xe000, 0x001f, 0x0000, 0x0000,
   0x0000, 0xfc00, 0x003f, 0x0000, 0x0000, 0x0000, 0xfe00, 0x007f, 0x0000,
   0x0000, 0x0000, 0xfc00, 0x00ff, 0x0000, 0x0000, 0x0000, 0xff80, 0x01ff,
   0x0000, 0x0000, 0x0000, 0xff80, 0x07ff, 0x0000, 0x0000, 0x0000, 0xff80,
   0x07ff, 0x0000, 0x0000, 0x0000, 0xffc0, 0x1fff, 0x0000, 0x0000, 0x0000,
   0xfff8, 0x3fff, 0x0000, 0x0000, 0x0000, 0xfffc, 0x3fe3, 0x0000, 0x0000,
   0x0000, 0xfff8, 0x3e01, 0x0000, 0xf000, 0x000f, 0xfffe, 0x0c01, 0x0000,
   0xfc01, 0x01ff, 0xffff, 0x0801, 0xc000, 0xffff, 0xffff, 0xffff, 0x0000,
   0xc000, 0xffff, 0xffff, 0xffff, 0x0000, 0xf000, 0xffdf, 0xffff, 0x7fff,
   0x0000, 0xf800, 0xffdf, 0xffff, 0x7fff, 0x0000, 0xff00, 0xffdf, 0xffff,
   0x7fff, 0x0000, 0xff00, 0xffd9, 0xffff, 0x7fff, 0x0000, 0xff80, 0xffc0,
   0xffff, 0x3fff, 0x0000, 0x3f80, 0xffc0, 0xffff, 0x3fff, 0x0000, 0x0f80,
   0xff80, 0xffff, 0x3fff, 0x0000, 0x0ff8, 0xff80, 0xffff, 0x3fff, 0x0000,
   0x0ff8, 0xff80, 0xffff, 0x3fff, 0x0000, 0x0fe0, 0xff00, 0xffff, 0x3fff,
   0x0000, 0x07c0, 0xfe00, 0xffff, 0x3fff, 0x0000, 0x0380, 0xfe00, 0xffc7,
   0x7fff, 0x0000, 0x0000, 0xfc00, 0x0007, 0xff90, 0x000f, 0x0000, 0xfc00,
   0x0007, 0xff80, 0x001f, 0x0000, 0xbe00, 0x000f, 0xff00, 0x001f, 0x0000,
   0x1e00, 0x000f, 0xfe00, 0x001f, 0x0000, 0x1e00, 0x000f, 0xf800, 0x007f,
   0x0000, 0x1f00, 0x001f, 0xe000, 0x007f, 0x0000, 0x0f00, 0x001e, 0xe000,
   0x00ff, 0x0000, 0x0700, 0x003c, 0xf000, 0x03e1, 0x0000, 0x0780, 0x01fc,
   0xf800, 0x07c0, 0x0000, 0x0780, 0x01f0, 0x7c00, 0x0f80, 0x0000, 0x0700,
   0x03e0, 0x1f80, 0x0e00, 0x0010, 0x0700, 0x0fc0, 0x1f80, 0x0e00, 0x0000,
   0x0600, 0x1f80, 0x0fc0, 0x0e00, 0x0000, 0x0c00, 0x7c00, 0x0000, 0x0000,
   0x0000, 0x0c00, 0xf800, 0x0000, 0x0000, 0x0010, 0x0c00, 0xe000, 0x0001,
   0x0000, 0x0000, 0x1800, 0xe000, 0x0001, 0x0000, 0x0000, 0x1800, 0xc000,
   0x0001, 0x0000, 0x0000, 0x3800, 0x0000, 0x0000, 0x0000, 0x0000, 0xf800,
   0x0000, 0x0000, 0x0000, 0x0000, 0xf800, 0x0003, 0x0000, 0x0000, 0x0000,
   0xe000, 0x0003, 0x0000, 0x0000, 0x0110, 0xe000, 0xfbfb, 0xdfef, 0xffdf,
   0x00df, 0x0000, 0x0000, 0x0000, 0x0000, 0x0000, 0x0000, 0x0000, 0x0000,
   0x3000, 0x0000, 0x0000, 0x0000, 0x0000, 0x1000, 0x0000, 0x0000, 0x0000,
   0x0000, 0x0800, 0x0000, 0x0000, 0x0000, 0x0000, 0x3800, 0x0000, 0x0000,
   0x0000, 0x0000, 0x1800, 0x0000, 0x0000, 0x0000, 0x0000, 0x0800 };
