#define lofazis_05_width 80
#define lofazis_05_height 61
static unsigned short lofazis_05_bits[] = {
   0x0000, 0x0000, 0x0000, 0x0000, 0x0000, 0x0000, 0x0000, 0x0000, 0x0000,
   0x0000, 0x0000, 0x0000, 0x0000, 0x0000, 0x0000, 0x0000, 0x0000, 0x0000,
   0x0000, 0x0000, 0x0000, 0x0000, 0x0000, 0x0000, 0x0000, 0x0000, 0x0000,
   0x0000, 0x0000, 0x000c, 0x0000, 0x0000, 0x0000, 0xe000, 0x001f, 0x0000,
   0x0000, 0x0000, 0xfc00, 0x003f, 0x0000, 0x0000, 0x0000, 0xfc00, 0x007f,
   0x0000, 0x0000, 0x0000, 0xfe00, 0x00ff, 0x0000, 0x0000, 0x0000, 0xff80,
   0x01ff, 0x0000, 0x0000, 0x0000, 0xff80, 0x03ff, 0x0000, 0x0000, 0x0000,
   0xffc0, 0x0fff, 0x0000, 0x0000, 0x0000, 0xffe0, 0x1fff, 0x0000, 0x0000,
   0x0000, 0xfff8, 0x3fff, 0x0000, 0x0000, 0x0000, 0xfff0, 0x3ff1, 0x0000,
   0x2000, 0x0000, 0xfff0, 0x3f01, 0x0000, 0xff00, 0xfe7f, 0xffff, 0x0c00,
   0x0000, 0xffc0, 0xffff, 0xffff, 0x0000, 0x0000, 0xffe0, 0xffff, 0xffff,
   0x0000, 0xf000, 0xffff, 0xffff, 0xffff, 0x0000, 0xf800, 0xffff, 0xffff,
   0x7fff, 0x0000, 0xfe00, 0xffff, 0xffff, 0x7fff, 0x0000, 0xfe00, 0xffef,
   0xffff, 0x3fff, 0x0000, 0xff00, 0xffe7, 0xffff, 0x3fff, 0x0000, 0x3f80,
   0xffc0, 0xffff, 0x3fff, 0x0000, 0x0fc0, 0xff80, 0xffff, 0x3fff, 0x0000,
   0x0fe0, 0xff80, 0xffff, 0x3fff, 0x0000, 0x07fc, 0xff00, 0xffff, 0x3fff,
   0x0000, 0x07fe, 0xfe00, 0xffff, 0x3fff, 0x0000, 0x03fe, 0xfe00, 0xffff,
   0x3fff, 0x0000, 0x0040, 0xf800, 0xfff3, 0xffff, 0x000f, 0x0000, 0xf800,
   0xff83, 0xffff, 0x000f, 0x0000, 0xf000, 0xfc01, 0xffef, 0x000f, 0x0000,
   0xf000, 0x0001, 0xffe0, 0x000f, 0x0000, 0xf000, 0x0001, 0x0fe0, 0x000e,
   0x0000, 0xf000, 0x0001, 0x0fe0, 0x001e, 0x0000, 0xf000, 0x0001, 0x0fc0,
   0x001e, 0x0000, 0xf800, 0x8001, 0x0e0f, 0x003c, 0x0000, 0xf800, 0x8003,
   0x1e0f, 0x003c, 0x0000, 0xf800, 0x000f, 0x3fbf, 0x003c, 0x0000, 0xf800,
   0x007f, 0x3ffe, 0x003c, 0x0000, 0xe000, 0x07ff, 0x1ffc, 0x0030, 0x0000,
   0xe000, 0x0fff, 0x0ff8, 0x003c, 0x0004, 0x8000, 0x3e07, 0x0000, 0x003e,
   0x0004, 0x0000, 0x380f, 0x0000, 0x0030, 0x0006, 0x0000, 0x783e, 0x0000,
   0x0030, 0x0000, 0x0000, 0x703e, 0x0000, 0x0000, 0x0000, 0x0000, 0x3078,
   0x0000, 0x0000, 0x0000, 0x0000, 0x0078, 0x0000, 0x0000, 0x0004, 0x0000,
   0x0070, 0x0000, 0x0000, 0x0000, 0x0000, 0x01c0, 0x0000, 0x0000, 0x0000,
   0x0000, 0x0000, 0x0000, 0x0000, 0x0000, 0x0000, 0x0000, 0x0000, 0x0000,
   0x0056, 0x0000, 0x0000, 0xff2d, 0xfdff, 0x0000, 0x0000, 0x0000, 0x0000,
   0x0000, 0x0000, 0x0000, 0x0000, 0x0000, 0x0000, 0x0000, 0x0000, 0x0000,
   0x0000, 0x7000, 0x0000, 0x0000, 0x0000, 0x0000, 0x0c00, 0x0000, 0x0000,
   0x0000, 0x0000, 0x0c00, 0x0000, 0x0000, 0x0000, 0x0000, 0x1800 };
