#define lofazis_03_width 80
#define lofazis_03_height 61
static unsigned short lofazis_03_bits[] = {
   0x0000, 0x0000, 0x0000, 0x0000, 0x0000, 0x0008, 0x0000, 0x0000, 0x0000,
   0x0000, 0x0000, 0x0000, 0x0000, 0x0000, 0x0000, 0x0000, 0x0000, 0x0000,
   0x0000, 0x0000, 0x0008, 0x0000, 0x0000, 0xc000, 0x0000, 0x0000, 0x0000,
   0x0000, 0xc000, 0x0001, 0x0008, 0x0000, 0x0000, 0x8800, 0x000f, 0x0008,
   0x0000, 0x0000, 0xfc00, 0x001f, 0x0008, 0x0000, 0x0000, 0xfc00, 0x003f,
   0x0000, 0x0000, 0x0000, 0xfe00, 0x007f, 0x0000, 0x0000, 0x0000, 0xff80,
   0x00ff, 0x0000, 0x0000, 0x0000, 0xffe0, 0x03ff, 0x0000, 0x0000, 0x0000,
   0xffe0, 0x07ff, 0x0000, 0x0000, 0x0000, 0xffc0, 0x0fff, 0x0000, 0x0000,
   0x0000, 0xffe0, 0x1fff, 0x0000, 0x0000, 0x0000, 0xffe0, 0x1ffd, 0x0000,
   0x0000, 0x0000, 0xfff0, 0x0f80, 0x0000, 0x0000, 0x0000, 0xfff8, 0x0000,
   0x0000, 0xf800, 0x0003, 0xfff8, 0x0000, 0x0000, 0xfe00, 0xc01f, 0xffff,
   0x0000, 0x0000, 0xff80, 0xffff, 0xffff, 0x0000, 0x0000, 0xffc0, 0xffff,
   0xffff, 0x0000, 0x0000, 0xfff8, 0xffff, 0x7fff, 0x0000, 0x0000, 0xffff,
   0xffff, 0x7fff, 0x0000, 0xf800, 0xffff, 0xffff, 0x7fff, 0x0000, 0xfc10,
   0xffff, 0xffff, 0x7fff, 0x0000, 0xfe38, 0xffff, 0xffff, 0x7fff, 0x0000,
   0xfe78, 0xffe7, 0xffff, 0x7fff, 0x0000, 0xfffc, 0xffc2, 0xffff, 0x7fff,
   0x0000, 0xfffd, 0xffc0, 0xffff, 0x7fff, 0x0000, 0x7ff8, 0xff80, 0xffff,
   0x3fff, 0x0000, 0x0fe0, 0xff00, 0xffff, 0x1fff, 0x0000, 0x07c0, 0xfe00,
   0xfff3, 0x0fff, 0x0000, 0x0180, 0xff00, 0xffc3, 0x07ff, 0x0000, 0x0000,
   0xff80, 0xf803, 0x03ff, 0x0000, 0x0001, 0xffe0, 0xe003, 0x03ff, 0x0000,
   0x0000, 0xefe0, 0x8003, 0x03ff, 0x0000, 0x0000, 0xe3f0, 0x8001, 0x03ff,
   0x0000, 0x0000, 0xe7c0, 0x8001, 0x0fc7, 0x0000, 0x0000, 0xff80, 0x8001,
   0x1f87, 0x0000, 0x0000, 0xff00, 0xc001, 0x1e0f, 0x0000, 0x0000, 0xfe00,
   0xc003, 0x0f9f, 0x0000, 0x0000, 0xf800, 0xe007, 0x0fff, 0x0000, 0x0000,
   0xf000, 0xf01f, 0x03ff, 0x0000, 0x0000, 0xe000, 0xfdf0, 0x0008, 0x0000,
   0x0000, 0xe000, 0x3fe1, 0x0000, 0x0000, 0x0000, 0xc000, 0x0fe1, 0x0000,
   0x0000, 0x0000, 0xc000, 0x0fe3, 0x0000, 0x0000, 0x0000, 0x0000, 0x0fc3,
   0x0000, 0x0000, 0x0000, 0x0000, 0x0e00, 0x0000, 0x0000, 0x0000, 0x0000,
   0x0e00, 0x0000, 0x0000, 0x0000, 0x0000, 0x0000, 0x0000, 0x0000, 0x0010,
   0x0000, 0x0000, 0x0000, 0x0000, 0x0010, 0x0000, 0x0000, 0x0000, 0x0000,
   0x0010, 0x0000, 0x0000, 0x0000, 0x0000, 0x0000, 0x0000, 0x0000, 0x0000,
   0xc400, 0x0212, 0x0011, 0x0006, 0x0000, 0x0000, 0x0004, 0x0000, 0x0000,
   0x0000, 0x0000, 0x0000, 0x0000, 0x0000, 0x0000, 0x3c00, 0x0010, 0x0000,
   0x0000, 0x0000, 0x1800, 0x0010, 0x0000, 0x0000, 0x0000, 0x3800 };
