#define lofazis_09_width 80
#define lofazis_09_height 61
static unsigned short lofazis_09_bits[] = {
   0x0000, 0x0000, 0x0000, 0x0000, 0x0000, 0x0000, 0x0000, 0x0000, 0x0000,
   0x0000, 0x0000, 0x0000, 0x0000, 0x0000, 0x0000, 0x0000, 0x0000, 0x0000,
   0x0000, 0x0000, 0x0000, 0x0000, 0x0000, 0x0000, 0x0000, 0x0000, 0x0000,
   0x0000, 0x0000, 0x0000, 0x0000, 0x0000, 0x0000, 0x0000, 0x0000, 0x0000,
   0x0000, 0x0000, 0x0000, 0x003e, 0x0000, 0x0000, 0x0000, 0x0000, 0x007e,
   0x0000, 0x0000, 0x0000, 0xfc00, 0x01ff, 0x0000, 0x0000, 0x0000, 0xf800,
   0x03ff, 0x0000, 0x0000, 0x0000, 0xf800, 0x07ff, 0x0000, 0x0000, 0x0000,
   0xfc00, 0x0fff, 0x0000, 0x0000, 0x0000, 0xff00, 0x0fff, 0x0000, 0x0000,
   0x0000, 0xff80, 0x1fff, 0x0000, 0x0000, 0x0000, 0xff00, 0x3fff, 0x0000,
   0x0000, 0x0000, 0xffc0, 0xffdf, 0x0000, 0x0000, 0x0000, 0xfff0, 0xfe0f,
   0x0000, 0x0000, 0x0006, 0xffff, 0xf80f, 0x0000, 0xf800, 0xf7ff, 0xffff,
   0x1003, 0x0000, 0xffc0, 0xffff, 0xffff, 0x0003, 0x0000, 0xfffc, 0xffff,
   0xffff, 0x0003, 0x8000, 0xffff, 0xffff, 0xffff, 0x0001, 0xc000, 0xff3f,
   0xffff, 0xffff, 0x0001, 0xf800, 0xff9f, 0xffff, 0xffff, 0x0001, 0xfc00,
   0xff8f, 0xffff, 0xffff, 0x0000, 0xff00, 0xffc7, 0xffff, 0xffff, 0x0000,
   0xffc0, 0xffc3, 0xffff, 0xffff, 0x0000, 0xfff0, 0xffc1, 0xffff, 0xffff,
   0x0000, 0x7fff, 0xffc0, 0xffff, 0xffff, 0x0000, 0x3ffe, 0xffe0, 0xffff,
   0xffff, 0x0000, 0x0300, 0xffe0, 0xffff, 0xffff, 0x0000, 0x0000, 0xffe0,
   0xffff, 0xffff, 0x0000, 0x0000, 0x7ff0, 0xffec, 0xffff, 0x0000, 0x0000,
   0x7ff8, 0xe000, 0xffff, 0x0001, 0x0000, 0x3ffe, 0x0000, 0xffc6, 0x0003,
   0xc000, 0x0fff, 0x0000, 0xc780, 0x001f, 0xf000, 0x07ff, 0x0000, 0x0780,
   0x003f, 0xf800, 0x01ff, 0x0000, 0x0780, 0x007e, 0xf800, 0x00f9, 0x0000,
   0x0700, 0x00fe, 0x7c00, 0x00f8, 0x0000, 0x0700, 0x01fc, 0x3c00, 0x0078,
   0x0000, 0x0700, 0x01f0, 0x0700, 0x003c, 0x0000, 0x0700, 0x0380, 0x07b0,
   0x003c, 0x0000, 0x0700, 0x0700, 0x03f0, 0x001c, 0x0000, 0x0600, 0x0e00,
   0x03f8, 0x001e, 0x0000, 0x0600, 0x1e00, 0x01f8, 0x001e, 0x0000, 0x0600,
   0x3c00, 0x0028, 0x000e, 0x0000, 0x0600, 0x7e00, 0x0000, 0x000e, 0x0000,
   0x0600, 0x7c00, 0x0000, 0x000e, 0x0000, 0x0c00, 0x0000, 0x0000, 0x000e,
   0x0000, 0x1c00, 0x0000, 0x0042, 0x000e, 0x0000, 0x3c00, 0x0000, 0x0042,
   0x001e, 0x0000, 0x7c00, 0x0000, 0x0002, 0x001e, 0x0000, 0xf800, 0x0000,
   0x0002, 0x003e, 0x0000, 0xf800, 0x0000, 0xffff, 0x003f, 0x0200, 0xfa00,
   0xfb80, 0x0040, 0x0000, 0x0000, 0x0000, 0x0000, 0x0002, 0x0000, 0x0000,
   0x0000, 0x7000, 0x0002, 0x0000, 0x0000, 0x0000, 0x5800, 0x0002, 0x0000,
   0x0000, 0x0000, 0x6800, 0x0042, 0x0000, 0x0000, 0x0000, 0x7800 };
